<?xml version="1.0" encoding="UTF-8" standalone="no"?>
<!-- Created with Inkscape (http://www.inkscape.org/) -->

<svg
   xmlns:dc="http://purl.org/dc/elements/1.1/"
   xmlns:cc="http://creativecommons.org/ns#"
   xmlns:rdf="http://www.w3.org/1999/02/22-rdf-syntax-ns#"
   xmlns:svg="http://www.w3.org/2000/svg"
   xmlns="http://www.w3.org/2000/svg"
   xmlns:sodipodi="http://sodipodi.sourceforge.net/DTD/sodipodi-0.dtd"
   xmlns:inkscape="http://www.inkscape.org/namespaces/inkscape"
   version="1.1"
   id="svg2"
   xml:space="preserve"
   width="210mm"
   height="69.615257mm"
   viewBox="0 0 793.70076 263.11279"
   sodipodi:docname="rocs.svg"
   inkscape:version="0.92.2 2405546, 2018-03-11"><metadata
     id="metadata8"><rdf:RDF><cc:Work
         rdf:about=""><dc:format>image/svg+xml</dc:format><dc:type
           rdf:resource="http://purl.org/dc/dcmitype/StillImage" /><dc:title /></cc:Work></rdf:RDF></metadata><defs
     id="defs6"><clipPath
   clipPathUnits="userSpaceOnUse"
   id="clipPath44"><path
     d="M 0,432 H 432 V 648 H 0 Z"
     id="path42"
     inkscape:connector-curvature="0" /></clipPath><clipPath
   clipPathUnits="userSpaceOnUse"
   id="clipPath56"><path
     d="M 38.98,464.89 H 426.52 V 642.52 H 38.98 Z"
     id="path54"
     inkscape:connector-curvature="0" /></clipPath><clipPath
   clipPathUnits="userSpaceOnUse"
   id="clipPath320"><path
     d="M 0,0 H 432 V 432 H 0 Z"
     id="path318"
     inkscape:connector-curvature="0" /></clipPath><clipPath
   clipPathUnits="userSpaceOnUse"
   id="clipPath332"><path
     d="M 41.3,30.25 H 426.52 V 426.52 H 41.3 Z"
     id="path330"
     inkscape:connector-curvature="0" /></clipPath><clipPath
   clipPathUnits="userSpaceOnUse"
   id="clipPath332-3"><path
     d="M 41.3,30.25 H 426.52 V 426.52 H 41.3 Z"
     id="path330-6"
     inkscape:connector-curvature="0" /></clipPath>
</defs><sodipodi:namedview
     pagecolor="#ffffff"
     bordercolor="#666666"
     borderopacity="1"
     objecttolerance="10"
     gridtolerance="10"
     guidetolerance="10"
     inkscape:pageopacity="0"
     inkscape:pageshadow="2"
     inkscape:window-width="1920"
     inkscape:window-height="1016"
     id="namedview4"
     showgrid="false"
     inkscape:zoom="2.1851852"
     inkscape:cx="591.85922"
     inkscape:cy="171.1342"
     inkscape:window-x="0"
     inkscape:window-y="27"
     inkscape:window-maximized="1"
     inkscape:current-layer="g328"
     fit-margin-top="0"
     fit-margin-left="0"
     fit-margin-right="0"
     fit-margin-bottom="0"
     units="mm" /><g
     id="g10"
     inkscape:groupmode="layer"
     inkscape:label="rocs"
     transform="matrix(1.3333333,0,0,-1.3333333,0.71333336,848.03488)"><g
   id="g12" /><g
   id="g14" /><g
   id="g16" /><g
   id="g18" /><g
   id="g20" /><g
   id="g22" /><g
   id="g24" /><g
   id="g26" /><g
   id="g28" /><g
   id="g30" /><g
   id="g32" /><g
   id="g34" /><g
   id="g36" /><g
   id="g48" /><g
   id="g50"
   transform="matrix(0.94237419,0,0,0.94237419,-0.03082981,24.863518)"><g
     id="g52"
     clip-path="url(#clipPath56)"><path
       d="m 56.6,472.96 h 11.74 v 4.89 H 56.6 Z"
       style="fill:#595959;fill-opacity:1;fill-rule:nonzero;stroke:none"
       id="path86"
       inkscape:connector-curvature="0" /><path
       d="m 68.34,472.96 h 11.74 v 56.55 H 68.34 Z"
       style="fill:#595959;fill-opacity:1;fill-rule:nonzero;stroke:none"
       id="path88"
       inkscape:connector-curvature="0" /><path
       d="M 80.08,472.96 H 91.82 V 590.95 H 80.08 Z"
       style="fill:#595959;fill-opacity:1;fill-rule:nonzero;stroke:none"
       id="path90"
       inkscape:connector-curvature="0" /><path
       d="m 91.83,472.96 h 11.74 V 634.44 H 91.83 Z"
       style="fill:#595959;fill-opacity:1;fill-rule:nonzero;stroke:none"
       id="path92"
       inkscape:connector-curvature="0" /><path
       d="m 103.57,472.96 h 11.74 v 139.73 h -11.74 z"
       style="fill:#595959;fill-opacity:1;fill-rule:nonzero;stroke:none"
       id="path94"
       inkscape:connector-curvature="0" /><path
       d="m 115.31,472.96 h 11.74 v 91.34 h -11.74 z"
       style="fill:#595959;fill-opacity:1;fill-rule:nonzero;stroke:none"
       id="path96"
       inkscape:connector-curvature="0" /><path
       d="m 127.06,472.96 h 11.74 v 53.83 h -11.74 z"
       style="fill:#595959;fill-opacity:1;fill-rule:nonzero;stroke:none"
       id="path98"
       inkscape:connector-curvature="0" /><path
       d="m 138.8,472.96 h 11.74 v 32.08 H 138.8 Z"
       style="fill:#595959;fill-opacity:1;fill-rule:nonzero;stroke:none"
       id="path100"
       inkscape:connector-curvature="0" /><path
       d="m 150.54,472.96 h 11.74 v 7.61 h -11.74 z"
       style="fill:#595959;fill-opacity:1;fill-rule:nonzero;stroke:none"
       id="path102"
       inkscape:connector-curvature="0" /><path
       d="m 162.29,472.96 h 11.74 v 5.98 h -11.74 z"
       style="fill:#595959;fill-opacity:1;fill-rule:nonzero;stroke:none"
       id="path104"
       inkscape:connector-curvature="0" /><path
       d="m 174.03,472.96 h 11.74 v 4.89 h -11.74 z"
       style="fill:#595959;fill-opacity:1;fill-rule:nonzero;stroke:none"
       id="path106"
       inkscape:connector-curvature="0" /><path
       d="m 185.78,472.96 h 11.74 v 4.35 h -11.74 z"
       style="fill:#595959;fill-opacity:1;fill-rule:nonzero;stroke:none"
       id="path108"
       inkscape:connector-curvature="0" /><path
       d="m 197.52,472.96 h 11.74 v 5.44 h -11.74 z"
       style="fill:#595959;fill-opacity:1;fill-rule:nonzero;stroke:none"
       id="path110"
       inkscape:connector-curvature="0" /><path
       d="M 209.26,472.96 H 221 v 1.09 h -11.74 z"
       style="fill:#595959;fill-opacity:1;fill-rule:nonzero;stroke:none"
       id="path112"
       inkscape:connector-curvature="0" /><path
       d="m 221.01,472.96 h 11.74 v 2.17 h -11.74 z"
       style="fill:#595959;fill-opacity:1;fill-rule:nonzero;stroke:none"
       id="path114"
       inkscape:connector-curvature="0" /><path
       d="m 232.75,472.96 h 11.74 v 1.09 h -11.74 z"
       style="fill:#595959;fill-opacity:1;fill-rule:nonzero;stroke:none"
       id="path116"
       inkscape:connector-curvature="0" /><path
       d="m 244.49,472.96 h 11.74 v 1.09 h -11.74 z"
       style="fill:#595959;fill-opacity:1;fill-rule:nonzero;stroke:none"
       id="path118"
       inkscape:connector-curvature="0" /><path
       d="m 256.24,472.96 h 11.74 v 0.54 h -11.74 z"
       style="fill:#595959;fill-opacity:1;fill-rule:nonzero;stroke:none"
       id="path120"
       inkscape:connector-curvature="0" /><path
       d="m 267.98,472.96 h 11.74 v 1.09 h -11.74 z"
       style="fill:#595959;fill-opacity:1;fill-rule:nonzero;stroke:none"
       id="path122"
       inkscape:connector-curvature="0" /><path
       d="m 279.73,472.96 h 11.74 v 1.09 h -11.74 z"
       style="fill:#595959;fill-opacity:1;fill-rule:nonzero;stroke:none"
       id="path124"
       inkscape:connector-curvature="0" /><path
       d="m 291.47,472.96 h 11.74 v 0 z"
       style="fill:#595959;fill-opacity:1;fill-rule:nonzero;stroke:none"
       id="path126"
       inkscape:connector-curvature="0" /><path
       d="m 303.21,472.96 h 11.74 v 0 z"
       style="fill:#595959;fill-opacity:1;fill-rule:nonzero;stroke:none"
       id="path128"
       inkscape:connector-curvature="0" /><path
       d="m 314.96,472.96 h 11.74 v 0 z"
       style="fill:#595959;fill-opacity:1;fill-rule:nonzero;stroke:none"
       id="path130"
       inkscape:connector-curvature="0" /><path
       d="m 326.7,472.96 h 11.74 v 0.54 H 326.7 Z"
       style="fill:#595959;fill-opacity:1;fill-rule:nonzero;stroke:none"
       id="path132"
       inkscape:connector-curvature="0" /><path
       d="m 338.44,472.96 h 11.74 v 0.54 h -11.74 z"
       style="fill:#595959;fill-opacity:1;fill-rule:nonzero;stroke:none"
       id="path134"
       inkscape:connector-curvature="0" /><path
       d="m 350.19,472.96 h 11.74 v 0 z"
       style="fill:#595959;fill-opacity:1;fill-rule:nonzero;stroke:none"
       id="path136"
       inkscape:connector-curvature="0" /><path
       d="m 361.93,472.96 h 11.74 v 1.09 h -11.74 z"
       style="fill:#595959;fill-opacity:1;fill-rule:nonzero;stroke:none"
       id="path138"
       inkscape:connector-curvature="0" /><path
       d="m 373.67,472.96 h 11.74 v 0.54 h -11.74 z"
       style="fill:#595959;fill-opacity:1;fill-rule:nonzero;stroke:none"
       id="path140"
       inkscape:connector-curvature="0" /><path
       d="m 385.42,472.96 h 11.74 v 0 z"
       style="fill:#595959;fill-opacity:1;fill-rule:nonzero;stroke:none"
       id="path142"
       inkscape:connector-curvature="0" /><path
       d="m 397.16,472.96 h 11.74 v 0.54 h -11.74 z"
       style="fill:#595959;fill-opacity:1;fill-rule:nonzero;stroke:none"
       id="path144"
       inkscape:connector-curvature="0" /></g></g><g
   id="g146" /><g
   id="g148" /><g
   id="g150" /><g
   id="g152" /><g
   id="g154" /><g
   id="g156" /><g
   id="g158" /><g
   id="g160" /><g
   id="g162" /><g
   id="g164" /><g
   id="g166" /><g
   id="g168" /><g
   id="g170" /><g
   id="g172" /><g
   id="g174" /><g
   id="g194" /><g
   id="g206" /><g
   id="g208" /><g
   id="g210" /><g
   id="g212" /><g
   id="g214" /><g
   id="g216" /><g
   id="g218" /><g
   id="g220" /><g
   id="g222" /><g
   id="g232" /><g
   id="g248" /><g
   id="g250" /><g
   id="g252" /><g
   id="g254" /><g
   id="g256" /><g
   id="g264" /><g
   id="g272" /><g
   id="g274" /><g
   id="g276" /><g
   id="g278" /><g
   id="g280" /><g
   id="g282" /><g
   id="g284" /><g
   id="g286" /><g
   id="g288" /><g
   id="g290" /><g
   id="g292" /><g
   id="g294"
   transform="matrix(0.94237419,0,0,0.94237419,-5.6370139,29.960825)"><text
   transform="matrix(1,0,0,-1,5.05,632.92)"
   style="font-variant:normal;font-weight:bold;font-size:14px;font-family:Helvetica;-inkscape-font-specification:Helvetica-Bold;writing-mode:lr-tb;fill:#000000;fill-opacity:1;fill-rule:nonzero;stroke:none"
   id="text298"><tspan
     x="0"
     y="0"
     id="tspan296">A</tspan></text>


</g><g
   id="g300" /><g
   id="g302" /><g
   id="g304" /><g
   id="g306" /><g
   id="g308" /><g
   id="g310" /><g
   id="g312" /><g
   id="g324" /><g
   id="g384" /><g
   id="g386" /><g
   id="g388" /><g
   id="g390" /><g
   id="g392" /><g
   id="g394" /><g
   id="g396" /><g
   id="g398" /><g
   id="g400" /><g
   id="g402" /><g
   id="g404" /><g
   id="g406" /><g
   id="g408" /><g
   id="g410" /><g
   id="g412" /><g
   id="g436" /><g
   id="g450" /><g
   id="g452" /><g
   id="g454" /><g
   id="g456" /><g
   id="g458" /><g
   id="g460" /><g
   id="g462" /><g
   id="g464" /><g
   id="g466" /><g
   id="g480" /><g
   id="g504" /><g
   id="g506" /><g
   id="g508" /><g
   id="g510" /><g
   id="g512" /><g
   id="g520" /><g
   id="g528" /><g
   id="g530" /><g
   id="g532" /><g
   id="g534" /><g
   id="g536" /><g
   id="g538" /><g
   id="g540" /><g
   id="g542" /><g
   id="g544" /><g
   id="g546" /><g
   id="g548" /><g
   id="g556" /><g
   id="g558" /><g
   id="g560" /><g
   id="g562" /><g
   id="g564" /><g
   id="g566" /><g
   id="g568" /><g
   id="g570" /><g
   id="g572" /><g
   id="g574" /><g
   id="g576" /><g
   id="g578" /><g
   id="g580" /><g
   id="g582" /><g
   id="g584" /><g
   id="g586" /><g
   id="g588" /><g
   id="g590" /><g
   id="g592" /><g
   id="g594" /><g
   id="g596" /><g
   id="g598" /><g
   id="g600" /><g
   id="g602" /><g
   id="g604" /><g
   id="g606" /><g
   id="g608" /><g
   id="g610" /><g
   id="g612" /><g
   id="g614" /><g
   id="g616" /><g
   id="g618" /><g
   id="g620" /><g
   id="g622" /><g
   id="g624" /><g
   id="g626" /><g
   id="g628" /><g
   id="g630" /><g
   id="g632" /><g
   id="g634" /><g
   id="g636" /><g
   id="g638" /><path
   d="m 309.12445,461.07606 v 1.8878"
   style="fill:none;stroke:#0e0000;stroke-width:0.73720479;stroke-linecap:butt;stroke-linejoin:round;stroke-miterlimit:10;stroke-dasharray:none;stroke-opacity:1"
   id="path522"
   inkscape:connector-curvature="0" /><text
   y="-440.97964"
   x="134.64862"
   style="font-style:normal;font-variant:normal;font-weight:normal;font-stretch:normal;font-size:11px;font-family:sans-serif;-inkscape-font-specification:sans-serif;writing-mode:lr-tb;fill:#000000;fill-opacity:1;fill-rule:nonzero;stroke:none;stroke-width:0.69855648"
   id="text785-1"
   transform="scale(1,-1)"><tspan
     style="stroke-width:0.69855648"
     y="-440.97964"
     x="134.64862"
     sodipodi:role="line"
     id="tspan797-6">Distance to ground truth (mm)</tspan></text>

<text
   y="-451.5773"
   x="305.99457"
   style="font-style:normal;font-variant:normal;font-weight:normal;font-stretch:normal;font-size:10px;font-family:sans-serif;-inkscape-font-specification:sans-serif;writing-mode:lr-tb;fill:#000000;fill-opacity:1;fill-rule:nonzero;stroke:none;stroke-width:0.69855648"
   id="text2145"
   transform="scale(1,-1)"><tspan
     y="-451.5773"
     x="305.99457"
     style="font-style:normal;font-variant:normal;font-weight:normal;font-stretch:normal;font-size:10px;font-family:sans-serif;-inkscape-font-specification:sans-serif;letter-spacing:-0.375px;stroke-width:0.69855648"
     sodipodi:role="line"
     id="tspan2143">2</tspan></text>

<text
   transform="scale(1,-1)"
   id="text1351"
   style="font-style:normal;font-variant:normal;font-weight:normal;font-stretch:normal;font-size:10px;font-family:sans-serif;-inkscape-font-specification:sans-serif;writing-mode:lr-tb;fill:#000000;fill-opacity:1;fill-rule:nonzero;stroke:none;stroke-width:0.69855648"
   x="180.71754"
   y="-451.5773"><tspan
     id="tspan1349"
     sodipodi:role="line"
     style="font-style:normal;font-variant:normal;font-weight:normal;font-stretch:normal;font-size:10px;font-family:sans-serif;-inkscape-font-specification:sans-serif;letter-spacing:-0.375px;stroke-width:0.69855648"
     x="180.71754"
     y="-451.5773">1</tspan></text>

<text
   y="-451.5773"
   x="55.660576"
   style="font-style:normal;font-variant:normal;font-weight:normal;font-stretch:normal;font-size:10px;font-family:sans-serif;-inkscape-font-specification:sans-serif;writing-mode:lr-tb;fill:#000000;fill-opacity:1;fill-rule:nonzero;stroke:none;stroke-width:0.69855648"
   id="text1355"
   transform="scale(1,-1)"><tspan
     y="-451.5773"
     x="55.660576"
     style="font-style:normal;font-variant:normal;font-weight:normal;font-stretch:normal;font-size:10px;font-family:sans-serif;-inkscape-font-specification:sans-serif;letter-spacing:-0.375px;stroke-width:0.69855648"
     sodipodi:role="line"
     id="tspan1353">0</tspan></text>

<path
   inkscape:connector-curvature="0"
   id="path1360"
   style="fill:none;stroke:#0e0000;stroke-width:0.73720479;stroke-linecap:butt;stroke-linejoin:round;stroke-miterlimit:10;stroke-dasharray:none;stroke-opacity:1"
   d="m 58.839286,461.07606 v 1.8878" /><path
   d="m 183.98658,461.07606 v 1.8878"
   style="fill:none;stroke:#0e0000;stroke-width:0.73720479;stroke-linecap:butt;stroke-linejoin:round;stroke-miterlimit:10;stroke-dasharray:none;stroke-opacity:1"
   id="path1362"
   inkscape:connector-curvature="0" /><text
   y="-466.92868"
   x="25.945066"
   style="font-style:normal;font-variant:normal;font-weight:normal;font-stretch:normal;font-size:10px;font-family:sans-serif;-inkscape-font-specification:sans-serif;writing-mode:lr-tb;fill:#000000;fill-opacity:1;fill-rule:nonzero;stroke:none;stroke-width:0.69855648"
   id="text1355-0"
   transform="scale(1,-1)"><tspan
     y="-466.92868"
     x="25.945066"
     style="font-style:normal;font-variant:normal;font-weight:normal;font-stretch:normal;font-size:10px;font-family:sans-serif;-inkscape-font-specification:sans-serif;letter-spacing:-0.375px;stroke-width:0.69855648"
     sodipodi:role="line"
     id="tspan1353-5">0</tspan></text>

<text
   transform="scale(1,-1)"
   id="text1384"
   style="font-style:normal;font-variant:normal;font-weight:normal;font-stretch:normal;font-size:10px;font-family:sans-serif;-inkscape-font-specification:sans-serif;writing-mode:lr-tb;fill:#000000;fill-opacity:1;fill-rule:nonzero;stroke:none;stroke-width:0.69855648"
   x="13.960692"
   y="-518.17499"><tspan
     id="tspan1382"
     sodipodi:role="line"
     style="font-style:normal;font-variant:normal;font-weight:normal;font-stretch:normal;font-size:10px;font-family:sans-serif;-inkscape-font-specification:sans-serif;letter-spacing:-0.375px;stroke-width:0.69855648"
     x="13.960692"
     y="-518.17499">100</tspan></text>

<text
   y="-569.41187"
   x="13.960692"
   style="font-style:normal;font-variant:normal;font-weight:normal;font-stretch:normal;font-size:10px;font-family:sans-serif;-inkscape-font-specification:sans-serif;writing-mode:lr-tb;fill:#000000;fill-opacity:1;fill-rule:nonzero;stroke:none;stroke-width:0.69855648"
   id="text1388"
   transform="scale(1,-1)"><tspan
     y="-569.41187"
     x="13.960692"
     style="font-style:normal;font-variant:normal;font-weight:normal;font-stretch:normal;font-size:10px;font-family:sans-serif;-inkscape-font-specification:sans-serif;letter-spacing:-0.375px;stroke-width:0.69855648"
     sodipodi:role="line"
     id="tspan1386">200</tspan></text>

<text
   transform="scale(1,-1)"
   id="text1392"
   style="font-style:normal;font-variant:normal;font-weight:normal;font-stretch:normal;font-size:10px;font-family:sans-serif;-inkscape-font-specification:sans-serif;writing-mode:lr-tb;fill:#000000;fill-opacity:1;fill-rule:nonzero;stroke:none;stroke-width:0.69855648"
   x="13.960692"
   y="-620.64874"><tspan
     id="tspan1390"
     sodipodi:role="line"
     style="font-style:normal;font-variant:normal;font-weight:normal;font-stretch:normal;font-size:10px;font-family:sans-serif;-inkscape-font-specification:sans-serif;letter-spacing:-0.375px;stroke-width:0.69855648"
     x="13.960692"
     y="-620.64874">300</tspan></text>

<path
   inkscape:connector-curvature="0"
   id="path1360-2"
   style="fill:none;stroke:#0e0000;stroke-width:0.73720479;stroke-linecap:butt;stroke-linejoin:round;stroke-miterlimit:10;stroke-dasharray:none;stroke-opacity:1"
   d="m 34.815116,470.56881 h 1.8878" /><path
   d="m 34.815116,521.81512 h 1.8878"
   style="fill:none;stroke:#0e0000;stroke-width:0.73720479;stroke-linecap:butt;stroke-linejoin:round;stroke-miterlimit:10;stroke-dasharray:none;stroke-opacity:1"
   id="path1409"
   inkscape:connector-curvature="0" /><path
   inkscape:connector-curvature="0"
   id="path1411"
   style="fill:none;stroke:#0e0000;stroke-width:0.73720479;stroke-linecap:butt;stroke-linejoin:round;stroke-miterlimit:10;stroke-dasharray:none;stroke-opacity:1"
   d="m 34.815116,573.05201 h 1.8878" /><path
   d="m 34.815116,624.28889 h 1.8878"
   style="fill:none;stroke:#0e0000;stroke-width:0.73720479;stroke-linecap:butt;stroke-linejoin:round;stroke-miterlimit:10;stroke-dasharray:none;stroke-opacity:1"
   id="path1413"
   inkscape:connector-curvature="0" /><text
   transform="matrix(0,1,1,0,0,0)"
   id="text1417"
   style="font-style:normal;font-variant:normal;font-weight:normal;font-stretch:normal;font-size:11px;font-family:sans-serif;-inkscape-font-specification:sans-serif;writing-mode:lr-tb;fill:#000000;fill-opacity:1;fill-rule:nonzero;stroke:none;stroke-width:0.69855648"
   x="530.17102"
   y="13.239215"><tspan
     id="tspan1415"
     sodipodi:role="line"
     x="530.17102"
     y="13.239215"
     style="stroke-width:0.69855648">Count</tspan></text>

<g
   id="g1678"
   transform="translate(40.544968)"><g
   transform="matrix(0.42214451,0,0,0.42214451,373.76883,450.21138)"
   id="g328"
   clip-path="url(#clipPath332-3)"><path
   d="m 58.81,48.26 v 0 0 0 0 0.83 0.83 2.48 3.32 L 59.23,64 v 7.45 7.45 9.94 9.94 10.77 13.25 11.59 7.45 12.43 10.76 9.94 10.77 8.28 4.97 11.59 3.31 12.43 7.45 9.11 4.97 4.14 2.48 1.66 1.65 4.15 2.48 2.48 1.66 3.31 2.49 4.14 1.65 4.15 3.31 0.83 1.65 0.83 0 0.83 0 0 1.66 0 0.82 1.66 l 0.41,0.83 v 0.83 0.82 0 0 0.83 0 0 0.83 0.83 0.83 0.82 0 0 0 0 0 0 0 0.83 0 1.66 0 0 1.66 1.65 0 0 0.83 0 0 0 0 0 0.83 0 1.65 1.66 l 0.41,0.83 v 0 1.66 0 0 1.65 0 0.83 1.66 0 1.65 0.83 0.83 0 0.83 1.65 0.83 0.83 0.83 0.83 3.31 0 0 0.83 0 0.82 0.83 0.83 1.66 0 1.65 2.49 1.65 0 2.49 1.66 0 0.82 0 1.66 1.66 0.82 0 0 0 0.83 0.83 3.31 0 1.66 1.66 1.65 1.66 0.83 l 0.41,0.82 v 0 1.66 0 0.83 0.83 0.83 0 1.65 0 0.83 0 0 0 0 0 1.66 0.82 l 0.42,0.83 v 1.66 1.65 l 0.41,0.83 0.41,0.83 v 0.83 h 0.42 v 0.83 0 l 0.41,0.83 v 0.82 1.66 h 0.41 0.41 v 0 0 0 l 0.42,3.31 h 1.24 1.24 v 0 h 0.41 0.82 l 0.42,0.83 0.41,1.66 h 0.41 0.83 1.24 v 0.83 l 1.65,1.65 2.48,0.83 2.06,0.83 1.65,0.83 h 1.24 1.24 2.07 l 3.71,0.82 h 2.07 l 2.89,1.66 4.96,0.83 2.89,0.83 2.89,0.82 h 3.71 l 4.55,0.83 4.95,0.83 9.09,0.83 5.78,0.83 h 4.95 l 6.2,0.83 h 5.78 6.61 l 8.67,0.82 h 7.02 9.5 8.26 l 14.45,0.83 h 13.63 11.56 9.92 7.43 l 13.21,0.83 h 13.22 13.21 12.39 12.8 9.09 9.5 9.08 5.37 8.26 6.61 9.91 10.32 6.61 3.72 5.37 l 3.71,0.83 h 3.31 4.54 0.41 1.24 1.65 0.42 v 0 h 0.41 v 0 0 0 0 0 0 0 0 0 0 0 0 0 0 0 0 0 0 0 0 0 0 0 0 0 0 0 0 0 0 0 0 0 0 0 0 0 0 0 0 0 0 0 0 0 0 0 0 0 0 0 0 0 0 0 0 0 0 0 0 0 0 0 0 0 0 0 0 0 0 0 0 0 0 0 0 0 0 0 0 0 0 0 0 0 0 0 0 0 0 0 0 0 0 0 0 0 0 0 0 0 0 0 0 0 0 0 0 0 0 0 0 0 0 0 0 0 0 0 0 0 0 0 0 0 0 0 0 0 0 0 0 0 0 0 0 0 0 0 0 0 0 0 0 0 0 0 0 0 0 0 0 0 0 0 0 0 0 0 0 0 0 0 0 0 0 0 0 0 0 0 0 0 0 0 0 0 0 0 0 0 0 0 0 0 0 0 0 0 0 0 0 0 0 0 0 0 0 0 0 0 0 0 0 0 0 0 0 0 0 0 0 0 0 0 0 0 0 0 0 0 0 0 0 0 0 0 0 0 0 0 0 0 0 0 0 0 0 0 0 0 0 0 0 0 0 0 0 0 0 0 0 0 0 0 0 0 0 0 0 0 0 0 0 0 0 0 0 0 0 0 0 0 0 0 0 0 0 0 0 0 0 0 0 0 0 0 0 0 0 0 0 0 0 0 0 0 0 0 0 0 0 0 0 0 0 0 0 0 0 0 0 0 0 0 0 0 0 0 0 0 0 0 0 0 0 0 0 0 0 0 0 0 0 0 0 0 0 0 0 0 0 0 0 0 0 0 0 0 0"
   style="fill:none;stroke:#0000ff;stroke-width:4.26999998;stroke-linecap:butt;stroke-linejoin:round;stroke-miterlimit:1;stroke-dasharray:none;stroke-opacity:0.67099998"
   id="path372"
   inkscape:connector-curvature="0" /><text
   transform="matrix(1,0,0,-1,55.94,372.71)"
   style="font-variant:normal;font-weight:normal;font-size:12.47999954px;font-family:ZapfDingbats;-inkscape-font-specification:ZapfDingbats;writing-mode:lr-tb;fill:#000000;fill-opacity:1;fill-rule:nonzero;stroke:#000000;stroke-width:0.70999998;stroke-linecap:round;stroke-linejoin:round;stroke-miterlimit:10;stroke-dasharray:none;stroke-opacity:1"
   id="text376"><tspan
     x="0"
     y="0"
     id="tspan374">●</tspan></text>

<path
   d="m 58.81,48.26 v 0 0 0 0 1.19 1.19 3.57 4.75 l 0.36,11.89 v 10.7 10.7 14.27 14.27 15.45 19.03 16.64 10.7 17.84 15.45 14.27 15.45 11.89 7.14 16.64 4.76 17.83 10.7 13.08 7.13 5.95 3.57 2.37 2.38 5.95 3.56 3.57 2.38 4.75 3.57 5.95 2.37 5.95 4.75 1.19 l 0.36,1.19 v 1.19 0 1.19 0 0 2.38 0 1.19 l 0.35,1.18 0.36,1.19 v 1.19 1.19 0 0 h 0.36 v 0 0 h 0.36 v 1.19 h 0.35 0.36 v 0 0 0 0 0 0 0 h 0.36 v 0 h 0.71 v 0 0 h 0.72 l 0.36,1.19 v 0 0 h 0.35 v 0 0 0 0 0 h 0.36 v 0 h 0.71 0.72 0.71 v 0 h 0.72 v 0 0 h 0.71 v 0 h 0.36 0.72 v 0 h 0.71 0.36 0.35 v 0 h 0.36 0.72 0.35 v 1.19 h 0.36 0.36 1.43 v 0 0 h 0.36 v 0 h 0.35 0.36 0.36 0.71 v 0 h 0.72 1.07 0.71 v 0 h 1.08 0.71 v 0 h 0.36 v 0 h 0.71 0.72 0.35 v 0 0 0 h 0.36 0.36 1.43 v 0 h 0.71 0.72 0.71 0.72 0.35 0.72 v 0 h 0.71 v 0 h 0.36 0.36 0.36 v 0 h 0.71 v 0 h 0.36 v 0 0 0 0 0 h 0.71 0.36 0.71 0.72 0.71 0.72 0.71 0.36 0.36 0.36 v 0 h 0.71 0.36 0.71 0.36 0.36 v 0 0 0 h 1.78 1.08 1.07 v 0 h 0.36 0.71 0.71 1.08 0.35 0.72 1.07 0.36 2.14 2.5 2.15 1.78 1.08 1.07 1.79 3.57 1.79 3.21 4.65 2.86 2.85 3.22 4.29 4.64 8.22 5.36 4.29 5.72 5 5.72 7.86 6.08 8.21 7.15 12.87 11.79 10 8.58 6.43 11.79 11.44 11.44 10.72 11.07 7.86 8.22 7.87 4.64 7.15 5.72 8.57 8.94 5.71 3.22 4.64 3.58 2.86 3.93 0.35 1.08 1.43 0.35 v 0 h 0.36 v 0 0 0 0 0 0 0 0 0 0 0 0 0 0 0 0 0 0 0 0 0 0 0 0 0 0 0 0 0 0 0 0 0 0 0 0 0 0 0 0 0 0 0 0 0 0 0 0 0 0 0 0 0 0 0 0 0 0 0 0 0 0 0 0 0 0 0 0 0 0 0 0 0 0 0 0 0 0 0 0 0 0 0 0 0 0 0 0 0 0 0 0 0 0 0 0 0 0 0 0 0 0 0 0 0 0 0 0 0 0 0 0 0 0 0 0 0 0 0 0 0 0 0 0 0 0 0 0 0 0 0 0 0 0 0 0 0 0 0 0 0 0 0 0 0 0 0 0 0 0 0 0 0 0 0 0 0 0 0 0 0 0 0 0 0 0 0 0 0 0 0 0 0 0 0 0 0 0 0 0 0 0 0 0 0 0 0 0 0 0 0 0 0 0 0 0 0 0 0 0 0 0 0 0 0 0 0 0 0 0 0 0 0 0 0 0 0 0 0 0 0 0 0 0 0 0 0 0 0 0 0 0 0 0 0 0 0 0 0 0 0 0 0 0 0 0 0 0 0 0 0 0 0 0 0 0 0 0 0 0 0 0 0 0 0 0 0 0 0 0 0 0 0 0 0 0 0 0 0 0 0 0 0 0 0 0 0 0 0 0 0 0 0 0 0 0 0 0 0 0 0 0 0 0 0 0 0 0 0 0 0 0 0 0 0 0 0 0 0 0 0 0 0 0 0 0 0 0 0 0 0 0 0 0 0 0 0 0 0 0 0 0 0 0 0 0 0 0 0 0"
   style="fill:none;stroke:#ff0000;stroke-width:4.26999998;stroke-linecap:butt;stroke-linejoin:round;stroke-miterlimit:1;stroke-dasharray:none;stroke-opacity:0.67099998"
   id="path378"
   inkscape:connector-curvature="0" /><text
   transform="matrix(1,0,0,-1,56.73,401.8)"
   style="font-variant:normal;font-weight:normal;font-size:12.47999954px;font-family:ZapfDingbats;-inkscape-font-specification:ZapfDingbats;writing-mode:lr-tb;fill:#000000;fill-opacity:1;fill-rule:nonzero;stroke:#000000;stroke-width:0.70999998;stroke-linecap:round;stroke-linejoin:round;stroke-miterlimit:10;stroke-dasharray:none;stroke-opacity:1"
   id="text382"><tspan
     x="0"
     y="0"
     id="tspan380">●</tspan></text>

<text
   xml:space="preserve"
   style="font-style:normal;font-variant:normal;font-weight:normal;font-stretch:normal;font-size:20px;line-height:18.75px;font-family:FontAwesome;-inkscape-font-specification:FontAwesome;letter-spacing:0px;word-spacing:0px;fill:#000000;fill-opacity:1;stroke:none;stroke-width:0.75px;stroke-linecap:butt;stroke-linejoin:miter;stroke-opacity:1"
   x="119.09747"
   y="-346.88135"
   id="text1934"
   transform="scale(1,-1)"><tspan
     sodipodi:role="line"
     id="tspan1932"
     x="119.09747"
     y="-346.88135"
     style="font-style:italic;font-variant:normal;font-weight:normal;font-stretch:normal;font-family:serif;-inkscape-font-specification:serif;fill:#0000ff;stroke-width:0.75px">T<tspan
   style="font-size:65%;baseline-shift:sub"
   id="tspan273">m</tspan> = 0.36 mm⋅s<tspan
   style="font-size:64.99999762%;baseline-shift:super"
   id="tspan1963">-1</tspan></tspan></text>

<text
   transform="scale(1,-1)"
   id="text1957"
   y="-375.38135"
   x="119.09747"
   style="font-style:normal;font-variant:normal;font-weight:normal;font-stretch:normal;font-size:20px;line-height:18.75px;font-family:FontAwesome;-inkscape-font-specification:FontAwesome;letter-spacing:0px;word-spacing:0px;fill:#000000;fill-opacity:1;stroke:none;stroke-width:0.75px;stroke-linecap:butt;stroke-linejoin:miter;stroke-opacity:1"
   xml:space="preserve"><tspan
     style="font-style:italic;font-variant:normal;font-weight:normal;font-stretch:normal;font-family:serif;-inkscape-font-specification:serif;fill:#ff0000;stroke-width:0.75px"
     y="-375.38135"
     x="119.09747"
     sodipodi:role="line"
     id="tspan1967">T<tspan
   style="font-size:64.99999762%;baseline-shift:sub"
   id="tspan271">w</tspan> = 0.9 mm⋅s<tspan
   style="font-size:64.99999762%;baseline-shift:super"
   id="tspan1965">-1</tspan></tspan></text>

<path
   style="fill:none;fill-rule:evenodd;stroke:#000000;stroke-width:0.75px;stroke-linecap:butt;stroke-linejoin:miter;stroke-opacity:1"
   d="M 118.75424,379.94493 64.525425,402.25425"
   id="path1959"
   inkscape:connector-curvature="0" /><path
   inkscape:connector-curvature="0"
   id="path1961"
   d="M 118.75424,351.44493 64.525425,373.75425"
   style="fill:none;fill-rule:evenodd;stroke:#000000;stroke-width:0.75px;stroke-linecap:butt;stroke-linejoin:miter;stroke-opacity:1" /><text
   xml:space="preserve"
   style="font-style:normal;font-variant:normal;font-weight:normal;font-stretch:normal;font-size:20px;line-height:18.75px;font-family:FontAwesome;-inkscape-font-specification:FontAwesome;letter-spacing:0px;word-spacing:0px;fill:#000000;fill-opacity:1;stroke:none;stroke-width:0.75px;stroke-linecap:butt;stroke-linejoin:miter;stroke-opacity:1"
   x="133.31061"
   y="-378.93463"
   id="text281"
   transform="scale(1,-1)"><tspan
     id="tspan279"
     sodipodi:role="line"
     x="133.31061"
     y="-378.93463"
     style="font-style:italic;font-variant:normal;font-weight:normal;font-stretch:normal;font-family:serif;-inkscape-font-specification:serif;fill:#ff0000;stroke-width:0.75px">*</tspan></text>
<text
   transform="scale(1,-1)"
   id="text289"
   y="-350.43463"
   x="133.31061"
   style="font-style:normal;font-variant:normal;font-weight:normal;font-stretch:normal;font-size:20px;line-height:18.75px;font-family:FontAwesome;-inkscape-font-specification:FontAwesome;letter-spacing:0px;word-spacing:0px;fill:#000000;fill-opacity:1;stroke:none;stroke-width:0.75px;stroke-linecap:butt;stroke-linejoin:miter;stroke-opacity:1"
   xml:space="preserve"><tspan
     style="font-style:italic;font-variant:normal;font-weight:normal;font-stretch:normal;font-family:serif;-inkscape-font-specification:serif;fill:#0000ff;stroke-width:0.75px"
     y="-350.43463"
     x="133.31061"
     id="tspan287"
     sodipodi:role="line">*</tspan></text>
</g><path
   inkscape:connector-curvature="0"
   id="path522-4"
   style="fill:none;stroke:#0e0000;stroke-width:0.73720479;stroke-linecap:butt;stroke-linejoin:round;stroke-miterlimit:10;stroke-dasharray:none;stroke-opacity:1"
   d="m 546.43016,461.09345 v 1.8878" /><text
   transform="scale(1,-1)"
   id="text785-1-9"
   style="font-style:normal;font-variant:normal;font-weight:normal;font-stretch:normal;font-size:11px;font-family:sans-serif;-inkscape-font-specification:sans-serif;writing-mode:lr-tb;fill:#000000;fill-opacity:1;fill-rule:nonzero;stroke:none;stroke-width:0.69855648"
   x="461.9306"
   y="-440.99704"><tspan
     id="tspan797-6-9"
     sodipodi:role="line"
     x="461.9306"
     y="-440.99704"
     style="stroke-width:0.69855648">FPR</tspan></text>

<text
   transform="scale(1,-1)"
   id="text2145-4"
   style="font-style:normal;font-variant:normal;font-weight:normal;font-stretch:normal;font-size:10px;font-family:sans-serif;-inkscape-font-specification:sans-serif;writing-mode:lr-tb;fill:#000000;fill-opacity:1;fill-rule:nonzero;stroke:none;stroke-width:0.69855648"
   x="538.63141"
   y="-451.5947"><tspan
     id="tspan2143-5"
     sodipodi:role="line"
     style="font-style:normal;font-variant:normal;font-weight:normal;font-stretch:normal;font-size:10px;font-family:sans-serif;-inkscape-font-specification:sans-serif;letter-spacing:-0.375px;stroke-width:0.69855648"
     x="538.63141"
     y="-451.5947">1.0</tspan></text>

<text
   y="-451.5947"
   x="465.03851"
   style="font-style:normal;font-variant:normal;font-weight:normal;font-stretch:normal;font-size:10px;font-family:sans-serif;-inkscape-font-specification:sans-serif;writing-mode:lr-tb;fill:#000000;fill-opacity:1;fill-rule:nonzero;stroke:none;stroke-width:0.69855648"
   id="text1448"
   transform="scale(1,-1)"><tspan
     y="-451.5947"
     x="465.03851"
     style="font-style:normal;font-variant:normal;font-weight:normal;font-stretch:normal;font-size:10px;font-family:sans-serif;-inkscape-font-specification:sans-serif;letter-spacing:-0.375px;stroke-width:0.69855648"
     sodipodi:role="line"
     id="tspan1446">0.5</tspan></text>

<text
   transform="scale(1,-1)"
   id="text1452"
   style="font-style:normal;font-variant:normal;font-weight:normal;font-stretch:normal;font-size:10px;font-family:sans-serif;-inkscape-font-specification:sans-serif;writing-mode:lr-tb;fill:#000000;fill-opacity:1;fill-rule:nonzero;stroke:none;stroke-width:0.69855648"
   x="391.01605"
   y="-451.5947"><tspan
     id="tspan1450"
     sodipodi:role="line"
     style="font-style:normal;font-variant:normal;font-weight:normal;font-stretch:normal;font-size:10px;font-family:sans-serif;-inkscape-font-specification:sans-serif;letter-spacing:-0.375px;stroke-width:0.69855648"
     x="391.01605"
     y="-451.5947">0.0</tspan></text>

<path
   d="m 472.51265,461.09345 v 1.8878"
   style="fill:none;stroke:#0e0000;stroke-width:0.73720479;stroke-linecap:butt;stroke-linejoin:round;stroke-miterlimit:10;stroke-dasharray:none;stroke-opacity:1"
   id="path1454"
   inkscape:connector-curvature="0" /><path
   inkscape:connector-curvature="0"
   id="path1456"
   style="fill:none;stroke:#0e0000;stroke-width:0.73720479;stroke-linecap:butt;stroke-linejoin:round;stroke-miterlimit:10;stroke-dasharray:none;stroke-opacity:1"
   d="m 398.59515,461.09345 v 1.8878" /><text
   y="-466.5947"
   x="371.64478"
   style="font-style:normal;font-variant:normal;font-weight:normal;font-stretch:normal;font-size:10px;font-family:sans-serif;-inkscape-font-specification:sans-serif;writing-mode:lr-tb;fill:#000000;fill-opacity:1;fill-rule:nonzero;stroke:none;stroke-width:0.69855648"
   id="text1460"
   transform="scale(1,-1)"><tspan
     y="-466.5947"
     x="371.64478"
     style="font-style:normal;font-variant:normal;font-weight:normal;font-stretch:normal;font-size:10px;font-family:sans-serif;-inkscape-font-specification:sans-serif;letter-spacing:-0.375px;stroke-width:0.69855648"
     sodipodi:role="line"
     id="tspan1458">0.0</tspan></text>

<text
   transform="scale(1,-1)"
   id="text1464"
   style="font-style:normal;font-variant:normal;font-weight:normal;font-stretch:normal;font-size:10px;font-family:sans-serif;-inkscape-font-specification:sans-serif;writing-mode:lr-tb;fill:#000000;fill-opacity:1;fill-rule:nonzero;stroke:none;stroke-width:0.69855648"
   x="371.85474"
   y="-542.9848"><tspan
     id="tspan1462"
     sodipodi:role="line"
     style="font-style:normal;font-variant:normal;font-weight:normal;font-stretch:normal;font-size:10px;font-family:sans-serif;-inkscape-font-specification:sans-serif;letter-spacing:-0.375px;stroke-width:0.69855648"
     x="371.85474"
     y="-542.9848">0.5</tspan></text>

<text
   y="-619.02148"
   x="371.64478"
   style="font-style:normal;font-variant:normal;font-weight:normal;font-stretch:normal;font-size:10px;font-family:sans-serif;-inkscape-font-specification:sans-serif;writing-mode:lr-tb;fill:#000000;fill-opacity:1;fill-rule:nonzero;stroke:none;stroke-width:0.69855648"
   id="text1468"
   transform="scale(1,-1)"><tspan
     y="-619.02148"
     x="371.64478"
     style="font-style:normal;font-variant:normal;font-weight:normal;font-stretch:normal;font-size:10px;font-family:sans-serif;-inkscape-font-specification:sans-serif;letter-spacing:-0.375px;stroke-width:0.69855648"
     sodipodi:role="line"
     id="tspan1466">1.0</tspan></text>

<path
   d="m 389.31561,470.58407 h 1.88779"
   style="fill:none;stroke:#0e0000;stroke-width:0.73720479;stroke-linecap:butt;stroke-linejoin:round;stroke-miterlimit:10;stroke-dasharray:none;stroke-opacity:1"
   id="path1360-2-1"
   inkscape:connector-curvature="0" /><text
   y="370.21039"
   x="536.29425"
   style="font-style:normal;font-variant:normal;font-weight:normal;font-stretch:normal;font-size:11px;font-family:sans-serif;-inkscape-font-specification:sans-serif;writing-mode:lr-tb;fill:#000000;fill-opacity:1;fill-rule:nonzero;stroke:none;stroke-width:0.69855648"
   id="text1417-7"
   transform="matrix(0,1,1,0,0,0)"><tspan
     style="stroke-width:0.69855648"
     y="370.21039"
     x="536.29425"
     sodipodi:role="line"
     id="tspan1415-1">TPR</tspan></text>

<path
   inkscape:connector-curvature="0"
   id="path1508"
   style="fill:none;stroke:#0e0000;stroke-width:0.73720479;stroke-linecap:butt;stroke-linejoin:round;stroke-miterlimit:10;stroke-dasharray:none;stroke-opacity:1"
   d="m 389.31561,546.62496 h 1.88779" /><path
   d="m 389.31561,622.66163 h 1.88779"
   style="fill:none;stroke:#0e0000;stroke-width:0.73720479;stroke-linecap:butt;stroke-linejoin:round;stroke-miterlimit:10;stroke-dasharray:none;stroke-opacity:1"
   id="path1510"
   inkscape:connector-curvature="0" /><text
   id="text1514"
   style="font-variant:normal;font-weight:bold;font-size:13.19323826px;font-family:Helvetica;-inkscape-font-specification:Helvetica-Bold;writing-mode:lr-tb;fill:#000000;fill-opacity:1;fill-rule:nonzero;stroke:none;stroke-width:0.94237417"
   transform="scale(1,-1)"
   x="356.46445"
   y="-626.24139"><tspan
     style="stroke-width:0.94237417"
     id="tspan1512"
     y="-626.24139"
     x="356.46445">B</tspan></text>

<path
   d="M 391.2034,462.98125 H 553.82191"
   style="fill:none;stroke:#000000;stroke-width:0.74745548;stroke-linecap:square;stroke-linejoin:round;stroke-miterlimit:10;stroke-dasharray:none;stroke-opacity:1"
   id="path1046-0"
   inkscape:connector-curvature="0"
   sodipodi:nodetypes="cc" /><path
   sodipodi:nodetypes="cc"
   inkscape:connector-curvature="0"
   id="path1524"
   style="fill:none;stroke:#000000;stroke-width:0.74745548;stroke-linecap:square;stroke-linejoin:round;stroke-miterlimit:10;stroke-dasharray:none;stroke-opacity:1"
   d="M 391.2034,462.98125 V 630.26446" /></g><path
   d="M 36.702916,462.96386 H 391.41061"
   style="fill:none;stroke:#000000;stroke-width:0.74745548;stroke-linecap:square;stroke-linejoin:round;stroke-miterlimit:10;stroke-dasharray:none;stroke-opacity:1"
   id="path1530"
   inkscape:connector-curvature="0"
   sodipodi:nodetypes="cc" /><path
   sodipodi:nodetypes="cc"
   inkscape:connector-curvature="0"
   id="path1534"
   style="fill:none;stroke:#000000;stroke-width:0.74745548;stroke-linecap:square;stroke-linejoin:round;stroke-miterlimit:10;stroke-dasharray:none;stroke-opacity:1"
   d="M 36.702916,462.96386 V 630.35778" /></g></svg>