<?xml version="1.0" encoding="UTF-8" standalone="no"?>
<!-- Created with Inkscape (http://www.inkscape.org/) -->

<svg
   xmlns:dc="http://purl.org/dc/elements/1.1/"
   xmlns:cc="http://creativecommons.org/ns#"
   xmlns:rdf="http://www.w3.org/1999/02/22-rdf-syntax-ns#"
   xmlns:svg="http://www.w3.org/2000/svg"
   xmlns="http://www.w3.org/2000/svg"
   xmlns:sodipodi="http://sodipodi.sourceforge.net/DTD/sodipodi-0.dtd"
   xmlns:inkscape="http://www.inkscape.org/namespaces/inkscape"
   version="1.1"
   id="svg2"
   xml:space="preserve"
   width="396.8504"
   height="595.27557"
   viewBox="0 0 396.8504 595.27557"
   sodipodi:docname="velocity-correction.svg"
   inkscape:version="0.92.2 2405546, 2018-03-11"><metadata
     id="metadata8"><rdf:RDF><cc:Work
         rdf:about=""><dc:format>image/svg+xml</dc:format><dc:type
           rdf:resource="http://purl.org/dc/dcmitype/StillImage" /><dc:title /></cc:Work></rdf:RDF></metadata><defs
     id="defs6"><clipPath
   clipPathUnits="userSpaceOnUse"
   id="clipPath44"><path
     d="M 0,432 H 432 V 648 H 0 Z"
     id="path42"
     inkscape:connector-curvature="0" /></clipPath><clipPath
   clipPathUnits="userSpaceOnUse"
   id="clipPath56"><path
     d="M 38.87,470.98 H 426.52 V 642.52 H 38.87 Z"
     id="path54"
     inkscape:connector-curvature="0" /></clipPath><clipPath
   clipPathUnits="userSpaceOnUse"
   id="clipPath358"><path
     d="M 0,216 H 432 V 432 H 0 Z"
     id="path356"
     inkscape:connector-curvature="0" /></clipPath><clipPath
   clipPathUnits="userSpaceOnUse"
   id="clipPath370"><path
     d="M 45.03,246.48 H 426.52 V 426.52 H 45.03 Z"
     id="path368"
     inkscape:connector-curvature="0" /></clipPath><clipPath
   clipPathUnits="userSpaceOnUse"
   id="clipPath684"><path
     d="M 0,0 H 432 V 216 H 0 Z"
     id="path682"
     inkscape:connector-curvature="0" /></clipPath><clipPath
   clipPathUnits="userSpaceOnUse"
   id="clipPath696"><path
     d="M 38.87,37.31 H 426.52 V 210.52 H 38.87 Z"
     id="path694"
     inkscape:connector-curvature="0" /></clipPath>





















</defs><sodipodi:namedview
     pagecolor="#ffffff"
     bordercolor="#666666"
     borderopacity="1"
     objecttolerance="10"
     gridtolerance="10"
     guidetolerance="10"
     inkscape:pageopacity="0"
     inkscape:pageshadow="2"
     inkscape:window-width="1920"
     inkscape:window-height="1016"
     id="namedview4"
     showgrid="false"
     inkscape:zoom="8.7407408"
     inkscape:cx="255.54268"
     inkscape:cy="274.81879"
     inkscape:window-x="0"
     inkscape:window-y="27"
     inkscape:window-maximized="1"
     inkscape:current-layer="g1932"
     fit-margin-top="0"
     fit-margin-left="0"
     fit-margin-right="0"
     fit-margin-bottom="0"
     showguides="true"
     inkscape:guide-bbox="true"><sodipodi:guide
       position="41.366142,391.81626"
       orientation="1,0"
       id="guide2316"
       inkscape:locked="false" /><sodipodi:guide
       position="396.07567,467.58933"
       orientation="1,0"
       id="guide2428"
       inkscape:locked="false" /></sodipodi:namedview><g
     id="g10"
     inkscape:groupmode="layer"
     inkscape:label="velocity-correction"
     transform="matrix(1.3333333,0,0,-1.3333333,0,595.27559)"><g
   id="g1932"
   transform="scale(0.6889764)"><g
   id="g12" /><g
   id="g14" /><g
   id="g16" /><g
   id="g18" /><g
   id="g20" /><g
   id="g22" /><g
   id="g24" /><g
   id="g26" /><g
   id="g28" /><g
   id="g30" /><g
   id="g32" /><g
   id="g34" /><g
   id="g36" /><g
   id="g48" /><path
   inkscape:connector-curvature="0"
   id="path88"
   style="fill:none;stroke:#f8766d;stroke-width:1.07000005;stroke-linecap:round;stroke-linejoin:round;stroke-miterlimit:10;stroke-dasharray:none;stroke-opacity:1"
   d="m 62.65,478.86 0.69,0.08 0.69,0.16 0.69,0.27 0.69,0.48 0.69,0.77 0.68,1.23 0.69,1.85 0.69,2.69 0.69,3.76 0.69,5.05 0.69,6.54 0.69,8.15 0.69,9.77 0.69,11.27 0.69,12.52 0.69,13.2 0.69,13.29 0.69,12.73 0.69,11.53 0.69,9.74 0.69,7.46 0.69,4.87 0.69,2.15 0.69,-0.56 0.69,-3.08 0.69,-5.27 0.69,-7.06 0.69,-8.41 0.69,-9.3 0.69,-9.77 0.69,-9.8 0.69,-9.56 0.69,-9.07 0.69,-8.43 0.68,-7.7 0.69,-6.91 0.69,-6.12 0.69,-5.35 0.69,-4.62 0.69,-3.97 0.69,-3.36 0.69,-2.84 0.69,-2.38 0.69,-1.97 0.69,-1.62 0.69,-1.34 0.69,-1.1 0.69,-0.9 0.69,-0.74 0.69,-0.61 0.69,-0.5 0.69,-0.4 0.69,-0.34 0.690001,-0.28 0.689999,-0.23 0.69,-0.2 0.69,-0.17 0.69,-0.15 0.69,-0.12 0.68999,-0.11 0.69,-0.1 0.69,-0.08 0.69,-0.07 0.68,-0.06 0.69,-0.06 0.69,-0.04 0.69,-0.05 0.69,-0.03 0.69,-0.04 0.69,-0.03 0.69,-0.03 0.69,-0.02 0.69,-0.03 0.69,-0.02 0.69,-0.03 0.69,-0.02 0.69,-0.02 0.69,-0.03 0.69,-0.02 0.69,-0.02 0.69,-0.02 0.69,-0.03 0.69,-0.02 0.69,-0.02 0.69,-0.03 0.69,-0.03 0.69,-0.02 0.69,-0.03 0.69,-0.03 0.69,-0.04 0.69,-0.03 0.69,-0.03 0.68,-0.03 0.69,-0.03 0.69,-0.04 0.69,-0.03 0.69,-0.04 0.69,-0.03 0.69,-0.04 0.69,-0.04 0.69,-0.05 0.69,-0.04 0.69,-0.04 0.69,-0.04 0.69,-0.04 0.69,-0.04 0.69,-0.04 0.69,-0.04 0.69,-0.03 0.69,-0.04 0.69,-0.03 0.69,-0.04 0.69,-0.03 0.69,-0.04 0.69,-0.04 0.69,-0.04 0.69,-0.04 0.69,-0.04 0.69,-0.04 0.69,-0.04 0.69,-0.03 0.68,-0.04 0.69,-0.03 0.69,-0.03 0.69,-0.04 0.69,-0.03 0.69,-0.04 0.69,-0.03 0.69,-0.04 0.69,-0.04 0.69,-0.04 0.69,-0.04 0.69,-0.04 0.69,-0.04 0.69,-0.04 0.69,-0.03 0.69,-0.03 0.69,-0.03 0.69,-0.03 0.69,-0.03 0.69,-0.02 0.69,-0.03 0.69,-0.02 0.69,-0.02 0.69,-0.02 0.69,-0.02 0.69,-0.02 0.69,-0.02 0.69,-0.02 0.69,-0.01 0.68,-0.02 0.69,-0.01 0.69,-0.02 0.69,-0.01 0.69,-0.02 0.69,-0.01 0.69,-0.02 0.69,-0.01 0.69,-0.01 0.69,-0.01 0.69,-0.01 0.69,-0.02 0.69,-0.01 0.69,-0.01 0.69,-0.01 0.69,-0.01 0.69,-0.01 0.69,-0.01 h 0.69 0.69 l 0.69,-0.01 0.69,0.01 h 0.69 0.69 0.69 0.69 0.69 0.69 0.68 0.69 l 0.69,0.01 h 0.69 l 0.69,0.01 0.69,0.01 0.69,0.01 0.69,0.01 0.69,0.01 0.69,0.01 0.69,0.01 0.69,0.01 0.69,0.01 0.69,0.01 0.69,0.01 0.69,0.01 0.69,0.02 0.69,0.01 0.69,0.01 0.69,0.02 0.69,0.02 0.69,0.02 0.69,0.02 0.69,0.02 0.69,0.02 0.69,0.02 0.69,0.02 0.69,0.02 0.69,0.01 0.68,0.02 0.69,0.01 0.69,0.02 0.69,0.01 0.69,0.02 0.69,0.02 0.69,0.01 0.69,0.03 0.69,0.02 0.69,0.02 0.69,0.03 0.69,0.02 0.69,0.03 0.69,0.03 0.69,0.02 0.69,0.03 0.69,0.02 0.69,0.03 0.69,0.03 0.69,0.03 0.69,0.03 0.69,0.03 0.69,0.03 0.69,0.03 0.69,0.04 0.69,0.03 0.69,0.04 0.69,0.03 0.69,0.04 0.68,0.04 0.69,0.04 0.69,0.04 0.69,0.04 0.69,0.04 0.69,0.04 0.69,0.05 0.69,0.04 0.69,0.05 0.69,0.05 0.69,0.05 0.69,0.04 0.69,0.05 0.69,0.05 0.69,0.04 0.69,0.04 0.69,0.04 0.69,0.04 0.69,0.04 0.69,0.03 0.69,0.04 0.69,0.03 0.69,0.04 0.69,0.03 0.69,0.04 0.69,0.05 0.69,0.04 0.69,0.05 0.69,0.06 0.68,0.05 0.69,0.07 0.69,0.06 0.69,0.07 0.69,0.07 0.69,0.06 0.69,0.07 0.69,0.06 0.69,0.06 0.69,0.05 0.69,0.04 0.69,0.04 0.69,0.04 0.69,0.04 0.69,0.03 0.69,0.03 0.69,0.04 0.69,0.04 0.69,0.04 0.69,0.04 0.69,0.04 0.69,0.04 0.69,0.04 0.69,0.04 0.69,0.04 0.69,0.04 0.69,0.03 0.69,0.04 0.69,0.03 0.68,0.03 0.69,0.03 0.69,0.02 0.69,0.02 0.69,0.02 0.69,0.02 0.69,0.02 0.69,0.01 0.69,0.01 0.69,0.01 0.69,0.02 0.69,0.01 0.69,0.01 0.69,0.01 0.69,0.02 0.69,0.01 0.69,0.02 0.69,0.01 0.69,0.02 0.69,0.01 0.69,0.01 0.69,0.01 h 0.69 0.69 l 0.69,-0.01 0.69,-0.02 0.69,-0.01 0.69,-0.02 0.69,-0.03 0.68,-0.03 0.69,-0.03 0.69,-0.03 0.69,-0.04 0.69,-0.04 0.69,-0.03 0.69,-0.04 0.69,-0.04 0.69,-0.05 0.69,-0.04 0.69,-0.05 0.69,-0.04 0.69,-0.05 0.69,-0.05 0.69,-0.05 0.69,-0.06 0.69,-0.05 0.69,-0.06 0.69,-0.06 0.69,-0.06 0.69,-0.06 0.69,-0.07 0.69,-0.06 0.69,-0.06 0.69,-0.05 0.69,-0.06 0.69,-0.05 0.69,-0.06 0.69,-0.05 0.68,-0.05 0.69,-0.06 0.69,-0.06 0.69,-0.07 0.69,-0.07 0.69,-0.07 0.69,-0.07 0.69,-0.08 0.69,-0.08 0.69,-0.07 0.69,-0.08 0.69,-0.07 0.69,-0.07 0.69,-0.07 0.69,-0.07 0.69,-0.07 0.69,-0.07 0.69,-0.07 0.69,-0.07 0.69,-0.07 0.69,-0.07 0.69,-0.08 0.69,-0.07 0.69,-0.08 0.69,-0.07 0.69,-0.07 0.69,-0.07 0.69,-0.06 0.68,-0.07 0.69,-0.06 0.69,-0.06 0.69,-0.05 0.69,-0.06 0.69,-0.05 0.69,-0.06 0.69,-0.05 0.69,-0.05 0.69,-0.04 0.69,-0.05 0.69,-0.05 0.69,-0.04 0.69,-0.05 0.69,-0.04 0.69,-0.05 0.69,-0.05 0.69,-0.05 0.69,-0.05 0.69,-0.05 0.69,-0.05 0.69,-0.05 0.69,-0.04 0.69,-0.05 0.69,-0.05 0.69,-0.04 0.69,-0.04 0.69,-0.04 0.69,-0.04 0.68,-0.04 0.69,-0.03 0.69,-0.04 0.69,-0.03 0.69,-0.04 0.69,-0.03 0.69,-0.03 0.69,-0.03 0.69,-0.04 0.69,-0.03 0.69,-0.03 0.69,-0.04 0.69,-0.03 0.69,-0.03 0.69,-0.03 0.69,-0.03 0.69,-0.02 0.69,-0.03 0.69,-0.02 0.69,-0.03 0.69,-0.02 0.69,-0.02 0.69,-0.02 0.69,-0.02 0.69,-0.02 0.69,-0.02 0.69,-0.02 0.69,-0.02 0.69,-0.02 0.68,-0.02 0.69,-0.02 0.69,-0.02 0.69,-0.01 0.69,-0.02 0.69,-0.01 0.69,-0.02 0.69,-0.01 0.69,-0.01 0.69,-0.01 0.69,-0.01 h 0.69 l 0.69,-0.01 0.69,-0.01 h 0.69 l 0.69,-0.01 0.69,-0.01 h 0.69 l 0.69,-0.01 h 0.69 l 0.69,-0.01 0.69,-0.01 h 0.69 l 0.69,-0.01 h 0.69 l 0.69,-0.01 h 0.69 l 0.69,-0.01 h 0.69 0.68 l 0.69,-0.01 h 0.69 0.69 l 0.69,-0.01 h 0.69 0.69 0.69 0.69 l 0.69,-0.01 h 0.69 0.69 0.69 0.69 0.69 0.69 0.69 0.69 0.69 0.69 0.69 0.69 0.69 0.69 0.69 0.69 0.69 0.69 0.69 0.68 0.69 0.69 0.69 0.69 0.69 0.69 0.69 0.69 0.69 0.69 0.69 l 0.69,-0.01 h 0.69 0.69 v 0 h -0.69 -0.69 -0.69 -0.69 -0.69 -0.69 -0.69 -0.69 -0.69 -0.69 -0.69 -0.69 -0.69 -0.69 -0.68 -0.69 -0.69 -0.69 -0.69 -0.69 -0.69 -0.69 -0.69 -0.69 -0.69 -0.69 -0.69 -0.69 -0.69 -0.69 -0.69 -0.69 -0.69 -0.69 -0.69 -0.69 -0.69 -0.69 -0.69 -0.69 -0.69 -0.69 -0.69 -0.68 -0.69 -0.69 -0.69 -0.69 -0.69 -0.69 -0.69 -0.69 -0.69 -0.69 -0.69 -0.69 -0.69 -0.69 -0.69 -0.69 -0.69 -0.69 -0.69 -0.69 -0.69 -0.69 -0.69 -0.69 -0.69 -0.69 -0.69 -0.69 -0.68 -0.69 -0.69 -0.69 -0.69 -0.69 -0.69 -0.69 -0.69 -0.69 -0.69 -0.69 -0.69 -0.69 -0.69 -0.69 -0.69 -0.69 -0.69 -0.69 -0.69 -0.69 -0.69 -0.69 -0.69 -0.69 -0.69 -0.69 -0.69 -0.68 -0.69 -0.69 -0.69 -0.69 -0.69 -0.69 -0.69 -0.69 -0.69 -0.69 -0.69 -0.69 -0.69 -0.69 -0.69 -0.69 -0.69 -0.69 -0.69 -0.69 -0.69 -0.69 -0.69 -0.69 -0.69 -0.69 -0.69 -0.69 -0.68 -0.69 -0.69 -0.69 -0.69 -0.69 -0.69 -0.69 -0.69 -0.69 -0.69 -0.69 -0.69 -0.69 -0.69 -0.69 -0.69 -0.69 -0.69 -0.69 -0.69 -0.69 -0.69 -0.69 -0.69 -0.69 -0.69 -0.69 -0.68 -0.69 -0.69 -0.69 -0.69 -0.69 -0.69 -0.69 -0.69 -0.69 -0.69 -0.69 -0.69 -0.69 -0.69 -0.69 -0.69 -0.69 -0.69 -0.69 -0.69 -0.69 -0.69 -0.69 -0.69 -0.69 -0.69 -0.69 -0.69 -0.68 -0.69 -0.69 -0.69 -0.69 -0.69 -0.69 -0.69 -0.69 -0.69 -0.69 -0.69 -0.69 -0.69 -0.69 -0.69 -0.69 -0.69 -0.69 -0.69 -0.69 -0.69 -0.69 -0.69 -0.69 -0.69 -0.69 -0.69 -0.69 -0.68 -0.69 -0.69 -0.69 -0.69 -0.69 -0.69 -0.69 -0.69 -0.69 -0.69 -0.69 -0.69 -0.69 -0.69 -0.69 -0.69 -0.69 -0.69 -0.69 -0.69 -0.69 -0.69 -0.69 -0.69 -0.69 -0.69 -0.69 -0.69 -0.68 -0.69 -0.69 -0.69 -0.69 -0.69 -0.69 -0.69 -0.69 -0.69 -0.69 -0.69 -0.69 -0.69 -0.69 -0.69 -0.69 -0.69 -0.69 -0.69 -0.69 -0.69 -0.69 -0.69 -0.69 -0.69 -0.69 -0.69 -0.69 -0.68 -0.69 -0.69 -0.69 -0.69 -0.69 -0.69 -0.69 -0.69 -0.69 -0.69 -0.69 -0.69 -0.69 -0.69 -0.69 -0.69 -0.69 -0.69 -0.69 -0.69 -0.69 -0.69 -0.69 -0.69 -0.69 -0.69 -0.69 -0.69 -0.68 -0.69 -0.69 -0.69 -0.69 -0.69 -0.69 -0.69 -0.69 -0.69 -0.69 -0.69 -0.69 -0.69 -0.69 -0.69 -0.69 -0.69 -0.69 -0.69 -0.69 -0.69 -0.69 -0.69 -0.69 -0.69 -0.69 -0.69 -0.69 -0.68 -0.69 -0.69 -0.69 -0.69 -0.69 -0.69 -0.69 -0.69 -0.69 -0.69 -0.69 -0.69 -0.69 -0.69 -0.69 -0.69 -0.69 -0.69 -0.69 -0.69 -0.69 -0.69 -0.69 -0.69 -0.69 -0.69 -0.69 -0.68 -0.69 -0.69 -0.69 -0.69 -0.69 -0.69 -0.69 -0.69 -0.69 -0.69 -0.69 -0.69 -0.69 -0.69 -0.69 -0.69 -0.69 -0.69 -0.69 -0.69 -0.69 -0.69 -0.69 -0.69 -0.69 -0.69 -0.69 -0.69 -0.68 -0.69 -0.69 -0.69 -0.69 -0.69 -0.69 -0.69 -0.69 -0.69 -0.69 -0.69 -0.69 -0.69 -0.69 -0.69 -0.69 -0.69 -0.69 -0.69 -0.69 -0.69 -0.69 -0.69 -0.69 -0.69 -0.69 -0.69 -0.69 -0.68 -0.69 -0.69 -0.69 -0.69 -0.69 -0.69 -0.69 -0.69 -0.69 -0.69 -0.69 -0.69 -0.69 -0.69 -0.69 -0.69 -0.69 -0.69 -0.69 -0.69 -0.69 -0.69 -0.69 -0.69 -0.69 -0.69 -0.69 -0.69 -0.68 -0.69 -0.69 -0.69 -0.68999 -0.69 -0.69 -0.69 -0.69 H 99.890001 99.2 98.51 97.82 97.13 96.44 95.75 95.06 94.37 93.68 92.99 92.3 91.61 90.92 90.23 89.54 88.85 88.16 87.47 86.78 86.1 85.41 84.72 84.03 83.34 82.65 81.96 81.27 80.58 79.89 79.2 78.51 77.82 77.13 76.44 75.75 75.06 74.37 73.68 72.99 72.3 71.61 70.92 70.23 69.54 68.85 68.16 67.47 66.78 66.1 65.41 64.72 64.03 63.34 62.65 v 0.08" /><path
   inkscape:connector-curvature="0"
   id="path90"
   style="fill:none;stroke:#00ba38;stroke-width:1.07000005;stroke-linecap:round;stroke-linejoin:round;stroke-miterlimit:10;stroke-dasharray:none;stroke-opacity:1"
   d="m 62.65,478.78 h 0.69 0.69 0.69 0.69 0.69 0.68 0.69 0.69 0.69 0.69 0.69 0.69 0.69 0.69 0.69 0.69 0.69 0.69 0.69 0.69 0.69 0.69 0.69 0.69 0.69 0.69 0.69 0.69 0.69 0.69 0.69 0.69 0.69 0.69 0.68 0.69 0.69 0.69 0.69 0.69 0.69 0.69 0.69 0.69 0.69 0.69 0.69 0.69 0.69 0.69 0.69 0.69 0.69 0.690001 0.689999 0.69 0.69 0.69 0.69 0.68999 0.69 0.69 0.69 0.68 0.69 0.69 0.69 0.69 0.69 0.69 0.69 0.69 0.69 0.69 0.69 l 0.69,0.01 0.69,0.02 0.69,0.05 0.69,0.08 0.69,0.17 0.69,0.31 0.69,0.54 0.69,0.91 0.69,1.46 0.69,2.25 0.69,3.29 0.69,4.62 0.69,6.24 0.69,8.04 0.69,9.96 0.69,11.88 0.69,13.43 0.68,14.43 0.69,14.76 0.69,14.31 0.69,13.07 0.69,11.09 0.69,8.49 0.69,5.48 0.69,2.31 0.69,-0.84 0.69,-3.73 0.69,-6.22 0.69,-8.21 0.69,-9.63 0.69,-10.53 0.69,-10.9 0.69,-10.81 0.69,-10.38 0.69,-9.71 0.69,-8.89 0.69,-7.98 0.69,-7.04 0.69,-6.13 0.69,-5.27 0.69,-4.47 0.69,-3.77 0.69,-3.15 0.69,-2.61 0.69,-2.15 0.69,-1.77 0.68,-1.45 0.69,-1.18 0.69,-0.95 0.69,-0.78 0.69,-0.63 0.69,-0.51 0.69,-0.42 0.69,-0.34 0.69,-0.28 0.69,-0.23 0.69,-0.18 0.69,-0.14 0.69,-0.11 0.69,-0.09 0.69,-0.07 0.69,-0.05 0.69,-0.04 0.69,-0.03 0.69,-0.03 0.69,-0.02 0.69,-0.02 0.69,-0.02 0.69,-0.02 0.69,-0.02 0.69,-0.02 0.69,-0.03 0.69,-0.03 0.69,-0.04 0.69,-0.03 0.68,-0.04 0.69,-0.04 0.69,-0.04 0.69,-0.04 0.69,-0.04 0.69,-0.03 0.69,-0.03 0.69,-0.03 0.69,-0.04 0.69,-0.03 0.69,-0.03 0.69,-0.04 0.69,-0.04 0.69,-0.05 0.69,-0.05 0.69,-0.06 0.69,-0.06 0.69,-0.07 0.69,-0.07 0.69,-0.07 0.69,-0.07 0.69,-0.07 0.69,-0.07 0.69,-0.07 0.69,-0.07 0.69,-0.07 0.69,-0.07 0.69,-0.07 0.68,-0.07 0.69,-0.06 0.69,-0.07 0.69,-0.06 0.69,-0.05 0.69,-0.05 0.69,-0.05 0.69,-0.05 0.69,-0.05 0.69,-0.04 0.69,-0.05 0.69,-0.05 0.69,-0.05 0.69,-0.05 0.69,-0.06 0.69,-0.05 0.69,-0.05 0.69,-0.05 0.69,-0.05 0.69,-0.05 0.69,-0.04 0.69,-0.04 0.69,-0.03 0.69,-0.03 0.69,-0.03 0.69,-0.02 0.69,-0.01 0.69,-0.02 0.69,-0.01 0.68,-0.01 0.69,-0.01 0.69,-0.02 0.69,-0.01 0.69,-0.02 0.69,-0.01 0.69,-0.02 0.69,-0.02 0.69,-0.01 0.69,-0.02 0.69,-0.02 0.69,-0.01 0.69,-0.02 0.69,-0.01 0.69,-0.01 h 0.69 0.69 0.69 0.69 0.69 l 0.69,0.01 h 0.69 l 0.69,0.01 h 0.69 l 0.69,0.01 h 0.69 l 0.69,0.01 h 0.69 l 0.69,0.01 h 0.68 0.69 0.69 l 0.69,0.01 h 0.69 0.69 l 0.69,0.01 0.69,0.01 0.69,0.01 0.69,0.01 0.69,0.01 0.69,0.01 0.69,0.02 0.69,0.01 0.69,0.02 0.69,0.02 0.69,0.03 0.69,0.03 0.69,0.03 0.69,0.04 0.69,0.04 0.69,0.05 0.69,0.04 0.69,0.04 0.69,0.04 0.69,0.04 0.69,0.03 0.69,0.04 0.69,0.03 0.68,0.04 0.69,0.03 0.69,0.04 0.69,0.04 0.69,0.05 0.69,0.05 0.69,0.05 0.69,0.05 0.69,0.06 0.69,0.05 0.69,0.06 0.69,0.05 0.69,0.06 0.69,0.06 0.69,0.05 0.69,0.06 0.69,0.07 0.69,0.07 0.69,0.07 0.69,0.07 0.69,0.08 0.69,0.08 0.69,0.07 0.69,0.08 0.69,0.07 0.69,0.07 0.69,0.07 0.69,0.06 0.69,0.06 0.68,0.06 0.69,0.06 0.69,0.06 0.69,0.06 0.69,0.07 0.69,0.06 0.69,0.07 0.69,0.07 0.69,0.07 0.69,0.06 0.69,0.07 0.69,0.07 0.69,0.07 0.69,0.06 0.69,0.06 0.69,0.06 0.69,0.06 0.69,0.05 0.69,0.06 0.69,0.05 0.69,0.06 0.69,0.05 0.69,0.06 0.69,0.05 0.69,0.06 0.69,0.05 0.69,0.04 0.69,0.04 0.69,0.04 0.68,0.03 0.69,0.03 0.69,0.03 0.69,0.03 0.69,0.03 0.69,0.03 0.69,0.03 0.69,0.04 0.69,0.03 0.69,0.03 0.69,0.02 0.69,0.03 0.69,0.02 0.69,0.02 0.69,0.02 0.69,0.01 0.69,0.02 h 0.69 l 0.69,0.01 h 0.69 l 0.69,-0.01 h 0.69 l 0.69,-0.02 0.69,-0.01 0.69,-0.02 0.69,-0.02 0.69,-0.03 0.69,-0.03 0.69,-0.03 0.68,-0.03 0.69,-0.03 0.69,-0.04 0.69,-0.03 0.69,-0.03 0.69,-0.03 0.69,-0.03 0.69,-0.03 0.69,-0.03 0.69,-0.04 0.69,-0.03 0.69,-0.04 0.69,-0.05 0.69,-0.04 0.69,-0.06 0.69,-0.06 0.69,-0.06 0.69,-0.06 0.69,-0.06 0.69,-0.07 0.69,-0.06 0.69,-0.07 0.69,-0.07 0.69,-0.06 0.69,-0.07 0.69,-0.06 0.69,-0.07 0.69,-0.07 0.68,-0.07 0.69,-0.07 0.69,-0.07 0.69,-0.07 0.69,-0.07 0.69,-0.07 0.69,-0.07 0.69,-0.07 0.69,-0.07 0.69,-0.07 0.69,-0.07 0.69,-0.07 0.69,-0.08 0.69,-0.08 0.69,-0.08 0.69,-0.08 0.69,-0.08 0.69,-0.09 0.69,-0.08 0.69,-0.07 0.69,-0.08 0.69,-0.08 0.69,-0.07 0.69,-0.08 0.69,-0.07 0.69,-0.08 0.69,-0.08 0.69,-0.08 0.69,-0.08 0.68,-0.08 0.69,-0.08 0.69,-0.08 0.69,-0.08 0.69,-0.08 0.69,-0.07 0.69,-0.08 0.69,-0.08 0.69,-0.08 0.69,-0.07 0.69,-0.07 0.69,-0.07 0.69,-0.07 0.69,-0.07 0.69,-0.06 0.69,-0.07 0.69,-0.06 0.69,-0.07 0.69,-0.07 0.69,-0.07 0.69,-0.07 0.69,-0.07 0.69,-0.08 0.69,-0.07 0.69,-0.07 0.69,-0.07 0.69,-0.06 0.69,-0.06 0.69,-0.06 0.68,-0.05 0.69,-0.05 0.69,-0.05 0.69,-0.04 0.69,-0.05 0.69,-0.04 0.69,-0.04 0.69,-0.04 0.69,-0.04 0.69,-0.04 0.69,-0.03 0.69,-0.04 0.69,-0.03 0.69,-0.04 0.69,-0.03 0.69,-0.03 0.69,-0.03 0.69,-0.02 0.69,-0.02 0.69,-0.03 0.69,-0.02 0.69,-0.02 0.69,-0.01 0.69,-0.02 0.69,-0.01 0.69,-0.02 0.69,-0.01 0.69,-0.01 0.69,-0.01 0.68,-0.01 0.69,-0.01 0.69,-0.01 0.69,-0.01 0.69,-0.01 0.69,-0.01 0.69,-0.01 0.69,-0.01 0.69,-0.01 0.69,-0.01 h 0.69 l 0.69,-0.01 0.69,-0.01 h 0.69 0.69 l 0.69,-0.01 h 0.69 0.69 l 0.69,-0.01 h 0.69 0.69 0.69 0.69 0.69 0.69 0.69 0.69 l 0.69,-0.01 h 0.69 0.68 0.69 0.69 0.69 0.69 0.69 0.69 0.69 0.69 0.69 0.69 0.69 0.69 0.69 0.69 v -0.01 h -0.69 -0.69 -0.69 -0.69 -0.69 -0.69 -0.69 -0.69 -0.69 -0.69 -0.69 -0.69 -0.69 -0.69 -0.68 -0.69 -0.69 -0.69 -0.69 -0.69 -0.69 -0.69 -0.69 -0.69 -0.69 -0.69 -0.69 -0.69 -0.69 -0.69 -0.69 -0.69 -0.69 -0.69 -0.69 -0.69 -0.69 -0.69 -0.69 -0.69 -0.69 -0.69 -0.69 -0.68 -0.69 -0.69 -0.69 -0.69 -0.69 -0.69 -0.69 -0.69 -0.69 -0.69 -0.69 -0.69 -0.69 -0.69 -0.69 -0.69 -0.69 -0.69 -0.69 -0.69 -0.69 -0.69 -0.69 -0.69 -0.69 -0.69 -0.69 -0.69 -0.68 -0.69 -0.69 -0.69 -0.69 -0.69 -0.69 -0.69 -0.69 -0.69 -0.69 -0.69 -0.69 -0.69 -0.69 -0.69 -0.69 -0.69 -0.69 -0.69 -0.69 -0.69 -0.69 -0.69 -0.69 -0.69 -0.69 -0.69 -0.69 -0.68 -0.69 -0.69 -0.69 -0.69 -0.69 -0.69 -0.69 -0.69 -0.69 -0.69 -0.69 -0.69 -0.69 -0.69 -0.69 -0.69 -0.69 -0.69 -0.69 -0.69 -0.69 -0.69 -0.69 -0.69 -0.69 -0.69 -0.69 -0.69 -0.68 -0.69 -0.69 -0.69 -0.69 -0.69 -0.69 -0.69 -0.69 -0.69 -0.69 -0.69 -0.69 -0.69 -0.69 -0.69 -0.69 -0.69 -0.69 -0.69 -0.69 -0.69 -0.69 -0.69 -0.69 -0.69 -0.69 -0.69 -0.68 -0.69 -0.69 -0.69 -0.69 -0.69 -0.69 -0.69 -0.69 -0.69 -0.69 -0.69 -0.69 -0.69 -0.69 -0.69 -0.69 -0.69 -0.69 -0.69 -0.69 -0.69 -0.69 -0.69 -0.69 -0.69 -0.69 -0.69 -0.69 -0.68 -0.69 -0.69 -0.69 -0.69 -0.69 -0.69 -0.69 -0.69 -0.69 -0.69 -0.69 -0.69 -0.69 -0.69 -0.69 -0.69 -0.69 -0.69 -0.69 -0.69 -0.69 -0.69 -0.69 -0.69 -0.69 -0.69 -0.69 -0.69 -0.68 -0.69 -0.69 -0.69 -0.69 -0.69 -0.69 -0.69 -0.69 -0.69 -0.69 -0.69 -0.69 -0.69 -0.69 -0.69 -0.69 -0.69 -0.69 -0.69 -0.69 -0.69 -0.69 -0.69 -0.69 -0.69 -0.69 -0.69 -0.69 -0.68 -0.69 -0.69 -0.69 -0.69 -0.69 -0.69 -0.69 -0.69 -0.69 -0.69 -0.69 -0.69 -0.69 -0.69 -0.69 -0.69 -0.69 -0.69 -0.69 -0.69 -0.69 -0.69 -0.69 -0.69 -0.69 -0.69 -0.69 -0.69 -0.68 -0.69 -0.69 -0.69 -0.69 -0.69 -0.69 -0.69 -0.69 -0.69 -0.69 -0.69 -0.69 -0.69 -0.69 -0.69 -0.69 -0.69 -0.69 -0.69 -0.69 -0.69 -0.69 -0.69 -0.69 -0.69 -0.69 -0.69 -0.69 -0.68 -0.69 -0.69 -0.69 -0.69 -0.69 -0.69 -0.69 -0.69 -0.69 -0.69 -0.69 -0.69 -0.69 -0.69 -0.69 -0.69 -0.69 -0.69 -0.69 -0.69 -0.69 -0.69 -0.69 -0.69 -0.69 -0.69 -0.69 -0.69 -0.68 -0.69 -0.69 -0.69 -0.69 -0.69 -0.69 -0.69 -0.69 -0.69 -0.69 -0.69 -0.69 -0.69 -0.69 -0.69 -0.69 -0.69 -0.69 -0.69 -0.69 -0.69 -0.69 -0.69 -0.69 -0.69 -0.69 -0.69 -0.68 -0.69 -0.69 -0.69 -0.69 -0.69 -0.69 -0.69 -0.69 -0.69 -0.69 -0.69 -0.69 -0.69 -0.69 -0.69 -0.69 -0.69 -0.69 -0.69 -0.69 -0.69 -0.69 -0.69 -0.69 -0.69 -0.69 -0.69 -0.69 -0.68 -0.69 -0.69 -0.69 -0.69 -0.69 -0.69 -0.69 -0.69 -0.69 -0.69 -0.69 -0.69 -0.69 -0.69 -0.69 -0.69 -0.69 -0.69 -0.69 -0.69 -0.69 -0.69 -0.69 -0.69 -0.69 -0.69 -0.69 -0.69 -0.68 -0.69 -0.69 -0.69 -0.69 -0.69 -0.69 -0.69 -0.69 -0.69 -0.69 -0.69 -0.69 -0.69 -0.69 -0.69 -0.69 -0.69 -0.69 -0.69 -0.69 -0.69 -0.69 -0.69 -0.69 -0.69 -0.69 -0.69 -0.69 -0.68 -0.69 -0.69 -0.69 -0.68999 -0.69 -0.69 -0.69 -0.69 H 99.890001 99.2 98.51 97.82 97.13 96.44 95.75 95.06 94.37 93.68 92.99 92.3 91.61 90.92 90.23 89.54 88.85 88.16 87.47 86.78 86.1 85.41 84.72 84.03 83.34 82.65 81.96 81.27 80.58 79.89 79.2 78.51 77.82 77.13 76.44 75.75 75.06 74.37 73.68 72.99 72.3 71.61 70.92 70.23 69.54 68.85 68.16 67.47 66.78 66.1 65.41 64.72 64.03 63.34 62.65 v 0" /><path
   inkscape:connector-curvature="0"
   id="path92"
   style="fill:none;stroke:#619cff;stroke-width:1.07000005;stroke-linecap:round;stroke-linejoin:round;stroke-miterlimit:10;stroke-dasharray:none;stroke-opacity:1"
   d="m 62.65,478.78 h 0.69 0.69 0.69 0.69 0.69 0.68 0.69 0.69 0.69 0.69 0.69 0.69 0.69 0.69 0.69 0.69 0.69 0.69 0.69 0.69 0.69 0.69 0.69 0.69 0.69 0.69 0.69 0.69 0.69 0.69 0.69 0.69 0.69 0.69 0.68 0.69 0.69 0.69 0.69 0.69 0.69 0.69 0.69 0.69 0.69 0.69 0.69 0.69 0.69 0.69 0.69 0.69 0.69 0.690001 0.689999 0.69 0.69 0.69 0.69 0.68999 0.69 0.69 0.69 0.68 0.69 0.69 0.69 0.69 0.69 0.69 0.69 0.69 0.69 0.69 0.69 0.69 0.69 0.69 0.69 0.69 0.69 0.69 0.69 0.69 0.69 0.69 0.69 0.69 0.69 0.69 0.69 0.69 0.68 0.69 0.69 0.69 0.69 0.69 0.69 0.69 0.69 0.69 0.69 0.69 0.69 0.69 0.69 0.69 0.69 0.69 0.69 0.69 0.69 0.69 0.69 0.69 0.69 0.69 0.69 0.69 0.69 0.68 0.69 0.69 0.69 0.69 0.69 0.69 0.69 0.69 0.69 0.69 0.69 0.69 0.69 0.69 0.69 0.69 0.69 0.69 0.69 0.69 0.69 0.69 0.69 0.69 0.69 0.69 0.69 0.69 0.68 0.69 0.69 0.69 0.69 0.69 0.69 0.69 0.69 0.69 0.69 0.69 0.69 0.69 0.69 0.69 0.69 0.69 l 0.69,0.01 0.69,0.01 0.69,0.04 0.69,0.09 0.69,0.17 0.69,0.35 0.69,0.64 0.69,1.11 0.69,1.85 0.69,2.98 0.68,4.44 0.69,6.23 0.69,8.31 0.69,10.51 0.69,12.64 0.69,14.43 0.69,15.69 0.69,16.18 0.69,15.8 0.69,14.48 0.69,12.29 0.69,9.39 0.69,5.98 0.69,2.32 0.69,-1.29 0.69,-4.63 0.69,-7.48 0.69,-9.68 0.69,-11.23 0.69,-12.03 0.69,-12.19 0.69,-11.88 0.69,-11.21 0.69,-10.29 0.69,-9.25 0.69,-8.15 0.69,-7.06 0.69,-6.03 0.69,-5.07 0.68,-4.22 0.69,-3.47 0.69,-2.83 0.69,-2.29 0.69,-1.85 0.69,-1.5 0.69,-1.2 0.69,-0.97 0.69,-0.79 0.69,-0.62 0.69,-0.5 0.69,-0.39 0.69,-0.32 0.69,-0.25 0.69,-0.2 0.69,-0.16 0.69,-0.13 0.69,-0.09 0.69,-0.08 0.69,-0.05 0.69,-0.05 0.69,-0.03 0.69,-0.02 0.69,-0.02 0.69,-0.03 0.69,-0.03 0.69,-0.04 0.69,-0.05 0.69,-0.07 0.68,-0.08 0.69,-0.09 0.69,-0.1 0.69,-0.1 0.69,-0.1 0.69,-0.1 0.69,-0.1 0.69,-0.09 0.69,-0.09 0.69,-0.09 0.69,-0.08 0.69,-0.08 0.69,-0.08 0.69,-0.07 0.69,-0.08 0.69,-0.08 0.69,-0.08 0.69,-0.08 0.69,-0.08 0.69,-0.07 0.69,-0.08 0.69,-0.07 0.69,-0.07 0.69,-0.07 0.69,-0.06 0.69,-0.07 0.69,-0.06 0.69,-0.05 0.69,-0.05 0.68,-0.05 0.69,-0.04 0.69,-0.04 0.69,-0.04 0.69,-0.04 0.69,-0.05 0.69,-0.04 0.69,-0.04 0.69,-0.04 0.69,-0.04 0.69,-0.04 0.69,-0.04 0.69,-0.03 0.69,-0.04 0.69,-0.03 0.69,-0.04 0.69,-0.04 0.69,-0.04 0.69,-0.03 0.69,-0.04 0.69,-0.02 0.69,-0.03 0.69,-0.02 h 0.69 l 0.69,-0.01 0.69,0.01 h 0.69 l 0.69,0.01 0.69,0.01 h 0.68 0.69 0.69 l 0.69,-0.01 h 0.69 0.69 0.69 0.69 l 0.69,0.02 0.69,0.02 0.69,0.02 0.69,0.03 0.69,0.03 0.69,0.02 0.69,0.03 0.69,0.03 0.69,0.03 0.69,0.03 0.69,0.04 0.69,0.03 0.69,0.05 0.69,0.04 0.69,0.05 0.69,0.06 0.69,0.06 0.69,0.07 0.69,0.06 0.69,0.08 0.69,0.07 0.68,0.08 0.69,0.08 0.69,0.09 0.69,0.09 0.69,0.08 0.69,0.09 0.69,0.08 0.69,0.07 0.69,0.08 0.69,0.07 0.69,0.08 0.69,0.08 0.69,0.08 0.69,0.09 0.69,0.09 0.69,0.08 0.69,0.09 0.69,0.08 0.69,0.09 0.69,0.08 0.69,0.08 0.69,0.08 0.69,0.08 0.69,0.09 0.69,0.08 0.69,0.09 0.69,0.09 0.69,0.1 0.69,0.09 0.68,0.09 0.69,0.09 0.69,0.08 0.69,0.08 0.69,0.07 0.69,0.07 0.69,0.06 0.69,0.05 0.69,0.05 0.69,0.04 0.69,0.04 0.69,0.03 0.69,0.03 0.69,0.02 0.69,0.02 0.69,0.02 0.69,0.01 0.69,0.02 0.69,0.02 0.69,0.03 0.69,0.02 0.69,0.01 0.69,0.01 0.69,0.01 h 0.69 0.69 0.69 l 0.69,-0.01 h 0.68 l 0.69,-0.01 0.69,-0.01 0.69,-0.01 0.69,-0.02 0.69,-0.02 0.69,-0.02 0.69,-0.02 0.69,-0.01 0.69,-0.02 0.69,-0.02 0.69,-0.03 0.69,-0.03 0.69,-0.04 0.69,-0.04 0.69,-0.05 0.69,-0.05 0.69,-0.05 0.69,-0.05 0.69,-0.06 0.69,-0.05 0.69,-0.05 0.69,-0.05 0.69,-0.05 0.69,-0.05 0.69,-0.05 0.69,-0.05 0.69,-0.06 0.69,-0.06 0.68,-0.07 0.69,-0.06 0.69,-0.07 0.69,-0.06 0.69,-0.05 0.69,-0.06 0.69,-0.05 0.69,-0.05 0.69,-0.05 0.69,-0.07 0.69,-0.07 0.69,-0.07 0.69,-0.09 0.69,-0.09 0.69,-0.1 0.69,-0.09 0.69,-0.09 0.69,-0.07 0.69,-0.08 0.69,-0.06 0.69,-0.06 0.69,-0.07 0.69,-0.07 0.69,-0.08 0.69,-0.08 0.69,-0.08 0.69,-0.08 0.69,-0.08 0.69,-0.08 0.68,-0.08 0.69,-0.08 0.69,-0.08 0.69,-0.07 0.69,-0.08 0.69,-0.08 0.69,-0.09 0.69,-0.08 0.69,-0.09 0.69,-0.09 0.69,-0.09 0.69,-0.08 0.69,-0.1 0.69,-0.09 0.69,-0.09 0.69,-0.09 0.69,-0.08 0.69,-0.09 0.69,-0.09 0.69,-0.08 0.69,-0.07 0.69,-0.07 0.69,-0.07 0.69,-0.06 0.69,-0.07 0.69,-0.07 0.69,-0.06 0.69,-0.07 0.69,-0.07 0.68,-0.06 0.69,-0.07 0.69,-0.06 0.69,-0.06 0.69,-0.05 0.69,-0.06 0.69,-0.05 0.69,-0.05 0.69,-0.04 0.69,-0.05 0.69,-0.04 0.69,-0.04 0.69,-0.04 0.69,-0.04 0.69,-0.04 0.69,-0.04 0.69,-0.04 0.69,-0.04 0.69,-0.05 0.69,-0.03 0.69,-0.04 0.69,-0.04 0.69,-0.03 0.69,-0.04 0.69,-0.03 0.69,-0.04 0.69,-0.03 0.69,-0.03 0.69,-0.04 0.68,-0.03 0.69,-0.03 0.69,-0.04 0.69,-0.03 0.69,-0.03 0.69,-0.02 0.69,-0.03 0.69,-0.03 0.69,-0.02 0.69,-0.03 0.69,-0.03 0.69,-0.04 0.69,-0.04 0.69,-0.04 0.69,-0.04 v -0.16 h -0.69 -0.69 -0.69 -0.69 -0.69 -0.69 -0.69 -0.69 -0.69 -0.69 -0.69 -0.69 -0.69 -0.69 -0.68 -0.69 -0.69 -0.69 -0.69 -0.69 -0.69 -0.69 -0.69 -0.69 -0.69 -0.69 -0.69 -0.69 -0.69 -0.69 -0.69 -0.69 -0.69 -0.69 -0.69 -0.69 -0.69 -0.69 -0.69 -0.69 -0.69 -0.69 -0.69 -0.68 -0.69 -0.69 -0.69 -0.69 -0.69 -0.69 -0.69 -0.69 -0.69 -0.69 -0.69 -0.69 -0.69 -0.69 -0.69 -0.69 -0.69 -0.69 -0.69 -0.69 -0.69 -0.69 -0.69 -0.69 -0.69 -0.69 -0.69 -0.69 -0.68 -0.69 -0.69 -0.69 -0.69 -0.69 -0.69 -0.69 -0.69 -0.69 -0.69 -0.69 -0.69 -0.69 -0.69 -0.69 -0.69 -0.69 -0.69 -0.69 -0.69 -0.69 -0.69 -0.69 -0.69 -0.69 -0.69 -0.69 -0.69 -0.68 -0.69 -0.69 -0.69 -0.69 -0.69 -0.69 -0.69 -0.69 -0.69 -0.69 -0.69 -0.69 -0.69 -0.69 -0.69 -0.69 -0.69 -0.69 -0.69 -0.69 -0.69 -0.69 -0.69 -0.69 -0.69 -0.69 -0.69 -0.69 -0.68 -0.69 -0.69 -0.69 -0.69 -0.69 -0.69 -0.69 -0.69 -0.69 -0.69 -0.69 -0.69 -0.69 -0.69 -0.69 -0.69 -0.69 -0.69 -0.69 -0.69 -0.69 -0.69 -0.69 -0.69 -0.69 -0.69 -0.69 -0.68 -0.69 -0.69 -0.69 -0.69 -0.69 -0.69 -0.69 -0.69 -0.69 -0.69 -0.69 -0.69 -0.69 -0.69 -0.69 -0.69 -0.69 -0.69 -0.69 -0.69 -0.69 -0.69 -0.69 -0.69 -0.69 -0.69 -0.69 -0.69 -0.68 -0.69 -0.69 -0.69 -0.69 -0.69 -0.69 -0.69 -0.69 -0.69 -0.69 -0.69 -0.69 -0.69 -0.69 -0.69 -0.69 -0.69 -0.69 -0.69 -0.69 -0.69 -0.69 -0.69 -0.69 -0.69 -0.69 -0.69 -0.69 -0.68 -0.69 -0.69 -0.69 -0.69 -0.69 -0.69 -0.69 -0.69 -0.69 -0.69 -0.69 -0.69 -0.69 -0.69 -0.69 -0.69 -0.69 -0.69 -0.69 -0.69 -0.69 -0.69 -0.69 -0.69 -0.69 -0.69 -0.69 -0.69 -0.68 -0.69 -0.69 -0.69 -0.69 -0.69 -0.69 -0.69 -0.69 -0.69 -0.69 -0.69 -0.69 -0.69 -0.69 -0.69 -0.69 -0.69 -0.69 -0.69 -0.69 -0.69 -0.69 -0.69 -0.69 -0.69 -0.69 -0.69 -0.69 -0.68 -0.69 -0.69 -0.69 -0.69 -0.69 -0.69 -0.69 -0.69 -0.69 -0.69 -0.69 -0.69 -0.69 -0.69 -0.69 -0.69 -0.69 -0.69 -0.69 -0.69 -0.69 -0.69 -0.69 -0.69 -0.69 -0.69 -0.69 -0.69 -0.68 -0.69 -0.69 -0.69 -0.69 -0.69 -0.69 -0.69 -0.69 -0.69 -0.69 -0.69 -0.69 -0.69 -0.69 -0.69 -0.69 -0.69 -0.69 -0.69 -0.69 -0.69 -0.69 -0.69 -0.69 -0.69 -0.69 -0.69 -0.69 -0.68 -0.69 -0.69 -0.69 -0.69 -0.69 -0.69 -0.69 -0.69 -0.69 -0.69 -0.69 -0.69 -0.69 -0.69 -0.69 -0.69 -0.69 -0.69 -0.69 -0.69 -0.69 -0.69 -0.69 -0.69 -0.69 -0.69 -0.69 -0.68 -0.69 -0.69 -0.69 -0.69 -0.69 -0.69 -0.69 -0.69 -0.69 -0.69 -0.69 -0.69 -0.69 -0.69 -0.69 -0.69 -0.69 -0.69 -0.69 -0.69 -0.69 -0.69 -0.69 -0.69 -0.69 -0.69 -0.69 -0.69 -0.68 -0.69 -0.69 -0.69 -0.69 -0.69 -0.69 -0.69 -0.69 -0.69 -0.69 -0.69 -0.69 -0.69 -0.69 -0.69 -0.69 -0.69 -0.69 -0.69 -0.69 -0.69 -0.69 -0.69 -0.69 -0.69 -0.69 -0.69 -0.69 -0.68 -0.69 -0.69 -0.69 -0.69 -0.69 -0.69 -0.69 -0.69 -0.69 -0.69 -0.69 -0.69 -0.69 -0.69 -0.69 -0.69 -0.69 -0.69 -0.69 -0.69 -0.69 -0.69 -0.69 -0.69 -0.69 -0.69 -0.69 -0.69 -0.68 -0.69 -0.69 -0.69 -0.68999 -0.69 -0.69 -0.69 -0.69 H 99.890001 99.2 98.51 97.82 97.13 96.44 95.75 95.06 94.37 93.68 92.99 92.3 91.61 90.92 90.23 89.54 88.85 88.16 87.47 86.78 86.1 85.41 84.72 84.03 83.34 82.65 81.96 81.27 80.58 79.89 79.2 78.51 77.82 77.13 76.44 75.75 75.06 74.37 73.68 72.99 72.3 71.61 70.92 70.23 69.54 68.85 68.16 67.47 66.78 66.1 65.41 64.72 64.03 63.34 62.65 v 0" /><path
   sodipodi:nodetypes="cc"
   inkscape:connector-curvature="0"
   id="path94"
   style="fill:none;stroke:#00ba38;stroke-width:4.26999998;stroke-linecap:butt;stroke-linejoin:round;stroke-miterlimit:10;stroke-dasharray:17.07, 17.07;stroke-dashoffset:0;stroke-opacity:1"
   d="M 152.73999,470.98 V 640.33576" /><path
   sodipodi:nodetypes="cc"
   d="M 227.73999,470.98 V 640.33576"
   style="fill:none;stroke:#619cff;stroke-width:4.26999998;stroke-linecap:butt;stroke-linejoin:round;stroke-miterlimit:10;stroke-dasharray:17.07, 17.07;stroke-dashoffset:0;stroke-opacity:1"
   id="path1918"
   inkscape:connector-curvature="0" /><path
   sodipodi:nodetypes="cc"
   inkscape:connector-curvature="0"
   id="path1920"
   style="fill:none;stroke:#f8766d;stroke-width:4.26999998;stroke-linecap:butt;stroke-linejoin:round;stroke-miterlimit:10;stroke-dasharray:17.07, 17.07;stroke-dashoffset:0;stroke-opacity:1"
   d="M 100.24,470.98 V 640.33576" /><g
   id="g2426"
   transform="translate(5.4800145)"><g
     id="g1982"
     transform="translate(77.526828,17.166362)"><g
   id="g1999"
   transform="translate(-0.18749969,-0.1874997)"><rect
     style="opacity:1;fill:#ebebeb;fill-opacity:1;stroke:#000006;stroke-width:0.375;stroke-linecap:round;stroke-linejoin:round;stroke-miterlimit:4;stroke-dasharray:none;stroke-dashoffset:0;stroke-opacity:1"
     id="rect1930"
     width="55.0914"
     height="60.251904"
     x="293.90176"
     y="-625.35364"
     transform="scale(1,-1)" /><g
     id="g2027"
     transform="translate(1.704976,-0.9539547)"><text
   transform="scale(1,-1)"
   id="text1934"
   y="-613.6167"
   x="310.30588"
   style="font-style:normal;font-variant:normal;font-weight:normal;font-stretch:normal;font-size:20px;line-height:18.75px;font-family:FontAwesome;-inkscape-font-specification:FontAwesome;letter-spacing:0px;word-spacing:0px;fill:#000000;fill-opacity:1;stroke:none;stroke-width:0.75px;stroke-linecap:butt;stroke-linejoin:miter;stroke-opacity:1"
   xml:space="preserve"><tspan
     style="font-size:12px;stroke-width:0.75px"
     y="-613.6167"
     x="310.30588"
     id="tspan1932"
     sodipodi:role="line">FPS</tspan></text>


<g
   id="g1965"><path
   style="fill:none;fill-rule:evenodd;stroke:#f8766d;stroke-width:2.71456623;stroke-linecap:butt;stroke-linejoin:miter;stroke-miterlimit:4;stroke-dasharray:none;stroke-opacity:1"
   d="m 298.5371,601.48671 h 18.13424"
   id="path1922"
   inkscape:connector-curvature="0" /><text
   transform="scale(1,-1)"
   id="text1938"
   y="-597.84167"
   x="325.95764"
   style="font-style:normal;font-variant:normal;font-weight:normal;font-stretch:normal;font-size:20px;line-height:18.75px;font-family:FontAwesome;-inkscape-font-specification:FontAwesome;letter-spacing:0px;word-spacing:0px;fill:#000000;fill-opacity:1;stroke:none;stroke-width:0.75px;stroke-linecap:butt;stroke-linejoin:miter;stroke-opacity:1"
   xml:space="preserve"><tspan
     style="font-size:10px;stroke-width:0.75px"
     y="-597.84167"
     x="325.95764"
     sodipodi:role="line"
     id="tspan1940">1</tspan></text>


</g><g
   transform="translate(0,6.0000002)"
   id="g1960"><path
   style="fill:none;fill-rule:evenodd;stroke:#00ba38;stroke-width:2.71456623;stroke-linecap:butt;stroke-linejoin:miter;stroke-miterlimit:4;stroke-dasharray:none;stroke-opacity:1"
   d="m 298.5371,581.52144 h 18.13424"
   id="path1926"
   inkscape:connector-curvature="0" /><text
   xml:space="preserve"
   style="font-style:normal;font-variant:normal;font-weight:normal;font-stretch:normal;font-size:20px;line-height:18.75px;font-family:FontAwesome;-inkscape-font-specification:FontAwesome;letter-spacing:0px;word-spacing:0px;fill:#000000;fill-opacity:1;stroke:none;stroke-width:0.75px;stroke-linecap:butt;stroke-linejoin:miter;stroke-opacity:1"
   x="325.95764"
   y="-577.81049"
   id="text1946"
   transform="scale(1,-1)"><tspan
     id="tspan1944"
     sodipodi:role="line"
     x="325.95764"
     y="-577.81049"
     style="font-size:10px;stroke-width:0.75px">2.1</tspan></text>


</g><g
   id="g1955"><path
   inkscape:connector-curvature="0"
   id="path1928"
   d="m 298.5371,573.55617 h 18.13424"
   style="fill:none;fill-rule:evenodd;stroke:#619cff;stroke-width:2.71456623;stroke-linecap:butt;stroke-linejoin:miter;stroke-miterlimit:4;stroke-dasharray:none;stroke-opacity:1" /><text
   transform="scale(1,-1)"
   id="text1950"
   y="-569.98193"
   x="325.95764"
   style="font-style:normal;font-variant:normal;font-weight:normal;font-stretch:normal;font-size:20px;line-height:18.75px;font-family:FontAwesome;-inkscape-font-specification:FontAwesome;letter-spacing:0px;word-spacing:0px;fill:#000000;fill-opacity:1;stroke:none;stroke-width:0.75px;stroke-linecap:butt;stroke-linejoin:miter;stroke-opacity:1"
   xml:space="preserve"><tspan
     style="font-size:10px;stroke-width:0.75px"
     y="-569.98193"
     x="325.95764"
     sodipodi:role="line"
     id="tspan1948">5</tspan></text>


</g></g></g><text
   xml:space="preserve"
   style="font-style:normal;font-variant:normal;font-weight:normal;font-stretch:normal;font-size:20px;line-height:18.75px;font-family:FontAwesome;-inkscape-font-specification:FontAwesome;letter-spacing:0px;word-spacing:0px;fill:#000000;fill-opacity:1;stroke:none;stroke-width:0.75px;stroke-linecap:butt;stroke-linejoin:miter;stroke-opacity:1"
   x="81.680061"
   y="-335.70987"
   id="text2003"
   transform="scale(1,-1)"><tspan
     sodipodi:role="line"
     id="tspan2001"
     x="81.680061"
     y="-319.19202"
     style="stroke-width:0.75px" /></text>


</g></g><g
   id="g96" /><g
   id="g98" /><g
   id="g100" /><g
   id="g102" /><g
   id="g104" /><g
   id="g106" /><g
   id="g108" /><g
   id="g110" /><g
   id="g112" /><g
   id="g114" /><g
   id="g116" /><g
   id="g118" /><g
   id="g120" /><g
   id="g122" /><g
   id="g124" /><g
   id="g144" /><path
   d="m 42.29,478.78 h 2.74"
   style="fill:none;stroke:#0e0000;stroke-width:1.07000005;stroke-linecap:butt;stroke-linejoin:round;stroke-miterlimit:10;stroke-dasharray:none;stroke-opacity:1"
   id="path148"
   inkscape:connector-curvature="0" /><path
   d="m 42.29,521.39 h 2.74"
   style="fill:none;stroke:#0e0000;stroke-width:1.07000005;stroke-linecap:butt;stroke-linejoin:round;stroke-miterlimit:10;stroke-dasharray:none;stroke-opacity:1"
   id="path150"
   inkscape:connector-curvature="0" /><path
   d="m 42.29,564.01 h 2.74"
   style="fill:none;stroke:#0e0000;stroke-width:1.07000005;stroke-linecap:butt;stroke-linejoin:round;stroke-miterlimit:10;stroke-dasharray:none;stroke-opacity:1"
   id="path152"
   inkscape:connector-curvature="0" /><path
   d="m 42.29,606.62 h 2.74"
   style="fill:none;stroke:#0e0000;stroke-width:1.07000005;stroke-linecap:butt;stroke-linejoin:round;stroke-miterlimit:10;stroke-dasharray:none;stroke-opacity:1"
   id="path154"
   inkscape:connector-curvature="0" /><g
   id="g156" /><g
   id="g158" /><g
   id="g160" /><g
   id="g162" /><g
   id="g164" /><g
   id="g166" /><g
   id="g168" /><g
   id="g170" /><g
   id="g172" /><path
   d="m 224.58999,468.24 v 2.74"
   style="fill:none;stroke:#0e0000;stroke-width:1.07000005;stroke-linecap:butt;stroke-linejoin:round;stroke-miterlimit:10;stroke-dasharray:none;stroke-opacity:1"
   id="path176"
   inkscape:connector-curvature="0" /><path
   d="m 386.53999,468.24 v 2.74"
   style="fill:none;stroke:#0e0000;stroke-width:1.07000005;stroke-linecap:butt;stroke-linejoin:round;stroke-miterlimit:10;stroke-dasharray:none;stroke-opacity:1"
   id="path178"
   inkscape:connector-curvature="0" /><path
   d="m 386.53999,468.24 v 2.74"
   style="fill:none;stroke:#0e0000;stroke-width:1.07000005;stroke-linecap:butt;stroke-linejoin:round;stroke-miterlimit:10;stroke-dasharray:none;stroke-opacity:1"
   id="path180"
   inkscape:connector-curvature="0" /><g
   id="g182" /><g
   id="g198" /><g
   id="g200" /><g
   id="g202" /><g
   id="g204" /><g
   id="g206" /><g
   id="g302" /><g
   id="g310" /><g
   id="g312" /><g
   id="g314" /><g
   id="g316" /><g
   id="g318" /><g
   id="g320" /><g
   id="g322" /><g
   id="g324" /><g
   id="g326" /><g
   id="g328" /><g
   id="g330" /><g
   id="g338" /><g
   id="g340" /><g
   id="g342" /><g
   id="g344" /><g
   id="g346" /><g
   id="g348" /><g
   id="g350" /><g
   id="g362" /><path
   inkscape:connector-curvature="0"
   id="path404"
   style="fill:#999999;fill-opacity:0.4;fill-rule:nonzero;stroke:none"
   d="m 62.37,288.52 4.39,1.26 4.39,1.26 4.39,1.27 4.39,1.27 4.39,1.28 4.39,1.28 4.39,1.29 4.39,1.3 4.39,1.3 4.39,1.31 4.39,1.31 4.39,1.32 4.39,1.33 4.39,1.34 4.39,1.35 4.39,1.36 4.39,1.37 4.39,1.38 4.39,1.39 4.39,1.4 4.39,1.41 4.39,1.43 4.39,1.44 4.39,1.45 4.39,1.47 4.39,1.48 4.39,1.49 4.39,1.51 4.39,1.53 4.39,1.54 4.39,1.56 4.39,1.57 4.39,1.59 4.39,1.61 4.39,1.62 4.39,1.63 4.39,1.65 4.39,1.67 4.39,1.68 4.39,1.69 4.39,1.71 4.39,1.72 4.39,1.74 4.39,1.74 4.39,1.76 4.39,1.77 4.39,1.78 4.39,1.79 4.39,1.8 4.39,1.8 4.39,1.82 4.39,1.82 4.39,1.84 4.39,1.84 4.39,1.84 4.39,1.86 4.39,1.86 4.39,1.86 4.39,1.87 4.39,1.88 4.39,1.88 4.39,1.88 4.39,1.89 4.39,1.9 4.39,1.9 4.39,1.9 4.39,1.9 4.39,1.91 4.39,1.91 4.39,1.92 4.39,1.91 4.39,1.92 4.39,1.93 4.39,1.92 4.39,1.93 4.39,1.93 4.39,1.93 4.39,1.93 4.39,1.94 v -44.72 l -4.39,-1.22 -4.39,-1.21 -4.39,-1.22 -4.39,-1.22 -4.39,-1.22 -4.39,-1.23 -4.39,-1.22 -4.39,-1.23 -4.39,-1.23 -4.39,-1.24 -4.39,-1.24 -4.39,-1.24 -4.39,-1.24 -4.39,-1.25 -4.39,-1.25 -4.39,-1.25 -4.39,-1.26 -4.39,-1.27 -4.39,-1.27 -4.39,-1.27 -4.39,-1.28 -4.39,-1.28 -4.39,-1.29 -4.39,-1.3 -4.39,-1.3 -4.39,-1.31 -4.39,-1.31 -4.39,-1.33 -4.39,-1.33 -4.39,-1.34 -4.39,-1.35 -4.39,-1.36 -4.39,-1.37 -4.39,-1.38 -4.39,-1.39 -4.39,-1.41 -4.39,-1.41 -4.39,-1.43 -4.39,-1.44 -4.39,-1.46 -4.39,-1.46 -4.39,-1.49 -4.39,-1.5 -4.39,-1.51 -4.39,-1.53 -4.39,-1.54 -4.39,-1.56 -4.39,-1.58 -4.39,-1.59 -4.39,-1.61 -4.39,-1.62 -4.39,-1.64 -4.39,-1.65 -4.39,-1.67 -4.39,-1.68 -4.39,-1.7 -4.39,-1.71 -4.39,-1.72 -4.39,-1.74 -4.39,-1.74 -4.39,-1.76 -4.39,-1.77 -4.39,-1.78 -4.39,-1.8 -4.39,-1.8 -4.39,-1.8 -4.39,-1.82 -4.39,-1.83 -4.39,-1.83 -4.39,-1.84 -4.39,-1.85 -4.39,-1.86 -4.39,-1.86 -4.39,-1.86 -4.39,-1.87 -4.39,-1.88 -4.39,-1.88 -4.39,-1.89 -4.39,-1.89 z" /><path
   inkscape:connector-curvature="0"
   id="path406"
   style="fill:none;stroke:#666666;stroke-width:2.13000011;stroke-linecap:butt;stroke-linejoin:round;stroke-miterlimit:1;stroke-dasharray:none;stroke-opacity:1"
   d="m 62.37,271.59 4.39,1.58 4.39,1.57 4.39,1.58 4.39,1.57 4.39,1.57 4.39,1.58 4.39,1.57 4.39,1.58 4.39,1.57 4.39,1.58 4.39,1.57 4.39,1.58 4.39,1.57 4.39,1.57 4.39,1.58 4.39,1.57 4.39,1.58 4.39,1.57 4.39,1.58 4.39,1.57 4.39,1.58 4.39,1.57 4.39,1.57 4.39,1.58 4.39,1.57 4.39,1.58 4.39,1.57 4.39,1.58 4.39,1.57 4.39,1.58 4.39,1.57 4.39,1.58 4.39,1.57 4.39,1.57 4.39,1.58 4.39,1.57 4.39,1.58 4.39,1.57 4.39,1.58 4.39,1.57 4.39,1.58 4.39,1.57 4.39,1.57 4.39,1.58 4.39,1.57 4.39,1.58 4.39,1.57 4.39,1.58 4.39,1.57 4.39,1.58 4.39,1.57 4.39,1.58 4.39,1.57 4.39,1.57 4.39,1.58 4.39,1.57 4.39,1.58 4.39,1.57 4.39,1.58 4.39,1.57 4.39,1.58 4.39,1.57 4.39,1.57 4.39,1.58 4.39,1.57 4.39,1.58 4.39,1.57 4.39,1.58 4.39,1.57 4.39,1.58 4.39,1.57 4.39,1.57 4.39,1.58 4.39,1.57 4.39,1.58 4.39,1.57 4.39,1.58 4.39,1.57 4.39,1.58" /><text
   id="text410"
   style="font-variant:normal;font-weight:normal;font-size:5.40999985px;font-family:ZapfDingbats;-inkscape-font-specification:ZapfDingbats;writing-mode:lr-tb;fill:#f8766d;fill-opacity:1;fill-rule:nonzero;stroke:#f8766d;stroke-width:0.70999998;stroke-linecap:round;stroke-linejoin:round;stroke-miterlimit:10;stroke-dasharray:none;stroke-opacity:1"
   transform="scale(1,-1)"
   x="60.220001"
   y="-274.92999"><tspan
     style="fill:#f8766d;fill-opacity:1;stroke:#f8766d;stroke-opacity:1"
     id="tspan408"
     y="-274.92999"
     x="60.220001">●</tspan></text>

<text
   id="text414"
   style="font-variant:normal;font-weight:normal;font-size:5.40999985px;font-family:ZapfDingbats;-inkscape-font-specification:ZapfDingbats;writing-mode:lr-tb;fill:#000000;fill-opacity:1;fill-rule:nonzero;stroke:#000000;stroke-width:0.70999998;stroke-linecap:round;stroke-linejoin:round;stroke-miterlimit:10;stroke-dasharray:none;stroke-opacity:1"
   transform="scale(1,-1)"
   x="81.900002"
   y="-281.37"><tspan
     id="tspan412"
     y="-281.37"
     x="81.900002">●</tspan></text>

<text
   id="text418"
   style="font-variant:normal;font-weight:normal;font-size:5.40999985px;font-family:ZapfDingbats;-inkscape-font-specification:ZapfDingbats;writing-mode:lr-tb;fill:#000000;fill-opacity:1;fill-rule:nonzero;stroke:#000000;stroke-width:0.70999998;stroke-linecap:round;stroke-linejoin:round;stroke-miterlimit:10;stroke-dasharray:none;stroke-opacity:1"
   transform="scale(1,-1)"
   x="118.03"
   y="-288.01001"><tspan
     id="tspan416"
     y="-288.01001"
     x="118.03">●</tspan></text>

<text
   id="text422"
   style="font-variant:normal;font-weight:normal;font-size:5.40999985px;font-family:ZapfDingbats;-inkscape-font-specification:ZapfDingbats;writing-mode:lr-tb;fill:#00ba38;fill-opacity:1;fill-rule:nonzero;stroke:#00ba38;stroke-width:0.70999998;stroke-linecap:round;stroke-linejoin:round;stroke-miterlimit:10;stroke-dasharray:none;stroke-opacity:1"
   transform="scale(1,-1)"
   x="154.14999"
   y="-297.04999"><tspan
     style="fill:#00ba38;fill-opacity:1;stroke:#00ba38;stroke-opacity:1"
     id="tspan420"
     y="-297.04999"
     x="154.14999">●</tspan></text>

<text
   id="text426"
   style="font-variant:normal;font-weight:normal;font-size:5.40999985px;font-family:ZapfDingbats;-inkscape-font-specification:ZapfDingbats;writing-mode:lr-tb;fill:#000000;fill-opacity:1;fill-rule:nonzero;stroke:#000000;stroke-width:0.70999998;stroke-linecap:round;stroke-linejoin:round;stroke-miterlimit:10;stroke-dasharray:none;stroke-opacity:1"
   transform="scale(1,-1)"
   x="190.28"
   y="-303.82999"><tspan
     id="tspan424"
     y="-303.82999"
     x="190.28">●</tspan></text>

<text
   id="text430"
   style="font-variant:normal;font-weight:normal;font-size:5.40999985px;font-family:ZapfDingbats;-inkscape-font-specification:ZapfDingbats;writing-mode:lr-tb;fill:#000000;fill-opacity:1;fill-rule:nonzero;stroke:#000000;stroke-width:0.70999998;stroke-linecap:round;stroke-linejoin:round;stroke-miterlimit:10;stroke-dasharray:none;stroke-opacity:1"
   transform="scale(1,-1)"
   x="244.47"
   y="-337.57999"><tspan
     id="tspan428"
     y="-337.57999"
     x="244.47">●</tspan></text>

<text
   id="text434"
   style="font-variant:normal;font-weight:normal;font-size:5.40999985px;font-family:ZapfDingbats;-inkscape-font-specification:ZapfDingbats;writing-mode:lr-tb;fill:#000000;fill-opacity:1;fill-rule:nonzero;stroke:#000000;stroke-width:0.70999998;stroke-linecap:round;stroke-linejoin:round;stroke-miterlimit:10;stroke-dasharray:none;stroke-opacity:1"
   transform="scale(1,-1)"
   x="334.78"
   y="-391.16"><tspan
     id="tspan432"
     y="-391.16"
     x="334.78">●</tspan></text>

<text
   id="text438"
   style="font-variant:normal;font-weight:normal;font-size:5.40999985px;font-family:ZapfDingbats;-inkscape-font-specification:ZapfDingbats;writing-mode:lr-tb;fill:#619cff;fill-opacity:1;fill-rule:nonzero;stroke:#619cff;stroke-width:0.70999998;stroke-linecap:round;stroke-linejoin:round;stroke-miterlimit:10;stroke-dasharray:none;stroke-opacity:1"
   transform="scale(1,-1)"
   x="407.04001"
   y="-381.54001"><tspan
     style="fill:#619cff;fill-opacity:1;stroke:#619cff;stroke-opacity:1"
     id="tspan436"
     y="-381.54001"
     x="407.04001">●</tspan></text>

<g
   id="g440" /><g
   id="g442" /><g
   id="g444" /><g
   id="g446" /><g
   id="g448" /><g
   id="g450" /><g
   id="g452" /><g
   id="g454" /><g
   id="g456" /><g
   id="g458" /><g
   id="g460" /><g
   id="g462" /><g
   id="g464" /><g
   id="g466" /><g
   id="g468" /><g
   id="g484" /><path
   d="m 42.29,255.93 h 2.74"
   style="fill:none;stroke:#0e0000;stroke-width:1.07000005;stroke-linecap:butt;stroke-linejoin:round;stroke-miterlimit:10;stroke-dasharray:none;stroke-opacity:1"
   id="path488"
   inkscape:connector-curvature="0" /><path
   d="m 42.29,316.49 h 2.74"
   style="fill:none;stroke:#0e0000;stroke-width:1.07000005;stroke-linecap:butt;stroke-linejoin:round;stroke-miterlimit:10;stroke-dasharray:none;stroke-opacity:1"
   id="path490"
   inkscape:connector-curvature="0" /><path
   d="m 42.29,377.04 h 2.74"
   style="fill:none;stroke:#0e0000;stroke-width:1.07000005;stroke-linecap:butt;stroke-linejoin:round;stroke-miterlimit:10;stroke-dasharray:none;stroke-opacity:1"
   id="path492"
   inkscape:connector-curvature="0" /><g
   id="g494" /><g
   id="g496" /><g
   id="g498" /><g
   id="g500" /><g
   id="g502" /><g
   id="g504" /><g
   id="g506" /><g
   id="g508" /><g
   id="g510" /><path
   d="m 62.37,243.74 v 2.74"
   style="fill:none;stroke:#0e0000;stroke-width:1.07000005;stroke-linecap:butt;stroke-linejoin:round;stroke-miterlimit:10;stroke-dasharray:none;stroke-opacity:1"
   id="path514"
   inkscape:connector-curvature="0" /><path
   d="m 149.07,243.74 v 2.74"
   style="fill:none;stroke:#0e0000;stroke-width:1.07000005;stroke-linecap:butt;stroke-linejoin:round;stroke-miterlimit:10;stroke-dasharray:none;stroke-opacity:1"
   id="path516"
   inkscape:connector-curvature="0" /><path
   d="m 235.77,243.74 v 2.74"
   style="fill:none;stroke:#0e0000;stroke-width:1.07000005;stroke-linecap:butt;stroke-linejoin:round;stroke-miterlimit:10;stroke-dasharray:none;stroke-opacity:1"
   id="path518"
   inkscape:connector-curvature="0" /><path
   d="m 322.48,243.74 v 2.74"
   style="fill:none;stroke:#0e0000;stroke-width:1.07000005;stroke-linecap:butt;stroke-linejoin:round;stroke-miterlimit:10;stroke-dasharray:none;stroke-opacity:1"
   id="path520"
   inkscape:connector-curvature="0" /><path
   d="m 409.18,243.74 v 2.74"
   style="fill:none;stroke:#0e0000;stroke-width:1.07000005;stroke-linecap:butt;stroke-linejoin:round;stroke-miterlimit:10;stroke-dasharray:none;stroke-opacity:1"
   id="path522"
   inkscape:connector-curvature="0" /><g
   id="g524" /><g
   id="g548" /><g
   id="g550" /><g
   id="g552" /><g
   id="g554" /><g
   id="g556" /><g
   id="g564" /><g
   id="g636" /><g
   id="g638" /><g
   id="g640" /><g
   id="g642" /><g
   id="g644" /><g
   id="g646" /><g
   id="g648" /><g
   id="g650" /><g
   id="g652" /><g
   id="g654" /><g
   id="g656" /><g
   id="g664" /><g
   id="g666" /><g
   id="g668" /><g
   id="g670" /><g
   id="g672" /><g
   id="g674" /><g
   id="g676" /><g
   id="g688" /><g
   id="g738" /><g
   id="g740" /><g
   id="g742" /><g
   id="g744" /><g
   id="g746" /><g
   id="g748" /><g
   id="g750" /><g
   id="g752" /><g
   id="g754" /><g
   id="g756" /><g
   id="g758" /><g
   id="g760" /><g
   id="g762" /><g
   id="g764" /><g
   id="g766" /><g
   id="g786" /><g
   id="g798" /><g
   id="g800" /><g
   id="g802" /><g
   id="g804" /><g
   id="g806" /><g
   id="g808" /><g
   id="g810" /><g
   id="g812" /><g
   id="g814" /><g
   id="g824" /><g
   id="g840" /><g
   id="g842" /><g
   id="g844" /><g
   id="g846" /><g
   id="g848" /><g
   id="g972" /><g
   id="g980" /><g
   id="g982" /><g
   id="g984" /><g
   id="g986" /><g
   id="g988" /><g
   id="g990" /><g
   id="g992" /><g
   id="g994" /><g
   id="g996" /><g
   id="g998" /><g
   id="g1000" /><g
   id="g1008" /><g
   id="g1010" /><g
   id="g1012" /><g
   id="g1014" /><g
   id="g1016" /><g
   id="g1018" /><g
   id="g1020" /><g
   id="g1022" /><g
   id="g1024" /><g
   id="g1026" /><g
   id="g1028" /><g
   id="g1030" /><g
   id="g1032" /><g
   id="g1034" /><g
   id="g1036" /><g
   id="g1038" /><g
   id="g1040" /><g
   id="g1042" /><g
   id="g1044" /><g
   id="g1046" /><g
   id="g1048" /><g
   id="g1050" /><g
   id="g1052" /><g
   id="g1054" /><g
   id="g1056" /><g
   id="g1058" /><g
   id="g1060" /><g
   id="g1062" /><g
   id="g1064" /><g
   id="g1066" /><g
   id="g1068" /><g
   id="g1070" /><g
   id="g1072" /><g
   id="g1074" /><g
   id="g1076" /><g
   id="g1078" /><g
   id="g1080" /><g
   id="g1082" /><g
   id="g1084" /><g
   id="g1086" /><g
   id="g1088" /><g
   id="g1090" /><text
   transform="scale(1,-1)"
   id="text2007"
   y="-309.63562"
   x="254.00848"
   style="font-style:normal;font-variant:normal;font-weight:normal;font-stretch:normal;font-size:20px;line-height:18.75px;font-family:FontAwesome;-inkscape-font-specification:FontAwesome;letter-spacing:0px;word-spacing:0px;fill:#000000;fill-opacity:1;stroke:none;stroke-width:0.75px;stroke-linecap:butt;stroke-linejoin:miter;stroke-opacity:1"
   xml:space="preserve"><tspan
     style="font-style:italic;font-variant:normal;font-weight:normal;font-stretch:normal;font-size:14px;font-family:serif;-inkscape-font-specification:'serif Italic';stroke-width:0.75px"
     y="-309.63562"
     x="254.00848"
     id="tspan2005"
     sodipodi:role="line">T<tspan
   style="font-size:65%;baseline-shift:sub"
   id="tspan369">m</tspan> = a × F P S + b</tspan><tspan
     id="tspan2009"
     style="font-style:italic;font-variant:normal;font-weight:normal;font-stretch:normal;font-size:14px;font-family:serif;-inkscape-font-specification:'serif Italic';stroke-width:0.75px"
     y="-289.32703"
     x="254.00848"
     sodipodi:role="line">a = 0.003</tspan><tspan
     id="tspan2011"
     style="font-style:italic;font-variant:normal;font-weight:normal;font-stretch:normal;font-size:14px;font-family:serif;-inkscape-font-specification:'serif Italic';stroke-width:0.75px"
     y="-269.01843"
     x="254.00848"
     sodipodi:role="line">b ≈ 0</tspan></text>

<text
   id="text806"
   style="font-variant:normal;font-weight:bold;font-size:14.19466686px;font-family:Helvetica;-inkscape-font-specification:Helvetica-Bold;writing-mode:lr-tb;fill:#000000;fill-opacity:1;fill-rule:nonzero;stroke:none;stroke-width:1.01390481"
   x="-0.099218749"
   y="-633.18665"
   transform="scale(1,-1)"><tspan
     id="tspan804"
     y="-633.18665"
     x="-0.099218749"
     style="font-style:normal;font-variant:normal;font-weight:bold;font-stretch:normal;font-size:20.31999969px;font-family:sans-serif;-inkscape-font-specification:'sans-serif Bold';stroke-width:1.01390481">A</tspan></text>

<text
   transform="scale(1,-1)"
   y="-412.31265"
   x="-1.8653125"
   style="font-variant:normal;font-weight:bold;font-size:14.19466686px;font-family:Helvetica;-inkscape-font-specification:Helvetica-Bold;writing-mode:lr-tb;fill:#000000;fill-opacity:1;fill-rule:nonzero;stroke:none;stroke-width:1.01390481"
   id="text1944"><tspan
     style="font-style:normal;font-variant:normal;font-weight:bold;font-stretch:normal;font-size:20.31999969px;font-family:sans-serif;-inkscape-font-specification:'sans-serif Bold';stroke-width:1.01390481"
     x="-1.8653125"
     y="-412.31265"
     id="tspan1942">B</tspan></text>

<text
   id="text1948"
   style="font-variant:normal;font-weight:bold;font-size:14.19466686px;font-family:Helvetica;-inkscape-font-specification:Helvetica-Bold;writing-mode:lr-tb;fill:#000000;fill-opacity:1;fill-rule:nonzero;stroke:none;stroke-width:1.01390481"
   x="-1.0120312"
   y="-191.85847"
   transform="scale(1,-1)"><tspan
     id="tspan1946"
     y="-191.85847"
     x="-1.0120312"
     style="font-style:normal;font-variant:normal;font-weight:bold;font-stretch:normal;font-size:20.31999969px;font-family:sans-serif;-inkscape-font-specification:'sans-serif Bold';stroke-width:1.01390481">C</tspan></text>

<text
   y="-214.57156"
   x="220.95137"
   style="font-style:normal;font-variant:normal;font-weight:normal;font-stretch:normal;font-size:15.9657135px;font-family:sans-serif;-inkscape-font-specification:sans-serif;writing-mode:lr-tb;fill:#000000;fill-opacity:1;fill-rule:nonzero;stroke:none;stroke-width:1.01390481"
   id="text785-1"
   transform="scale(1,-1)"><tspan
     style="stroke-width:1.01390481"
     y="-214.57156"
     x="220.95137"
     sodipodi:role="line"
     id="tspan797-6">FPS</tspan></text>

<text
   id="text1971-2"
   style="font-style:normal;font-variant:normal;font-weight:normal;font-stretch:normal;font-size:14.51428509px;font-family:sans-serif;-inkscape-font-specification:sans-serif;writing-mode:lr-tb;fill:#000000;fill-opacity:1;fill-rule:nonzero;stroke:none;stroke-width:1.01390481"
   x="57.625217"
   y="-229.95328"
   transform="scale(1,-1)"><tspan
     id="tspan1969-1"
     sodipodi:role="line"
     style="font-style:normal;font-variant:normal;font-weight:normal;font-stretch:normal;font-size:14.51428509px;font-family:sans-serif;-inkscape-font-specification:sans-serif;letter-spacing:-0.54428571px;stroke-width:1.01390481"
     x="57.625217"
     y="-229.95328">1</tspan></text>

<text
   id="text2133"
   style="font-style:normal;font-variant:normal;font-weight:normal;font-stretch:normal;font-size:14.51428509px;font-family:sans-serif;-inkscape-font-specification:sans-serif;writing-mode:lr-tb;fill:#000000;fill-opacity:1;fill-rule:nonzero;stroke:none;stroke-width:1.01390481"
   x="144.65018"
   y="-229.95328"
   transform="scale(1,-1)"><tspan
     id="tspan2131"
     sodipodi:role="line"
     style="font-style:normal;font-variant:normal;font-weight:normal;font-stretch:normal;font-size:14.51428509px;font-family:sans-serif;-inkscape-font-specification:sans-serif;letter-spacing:-0.54428571px;stroke-width:1.01390481"
     x="144.65018"
     y="-229.95328">2</tspan></text>

<text
   transform="scale(1,-1)"
   y="-229.95328"
   x="231.18613"
   style="font-style:normal;font-variant:normal;font-weight:normal;font-stretch:normal;font-size:14.51428509px;font-family:sans-serif;-inkscape-font-specification:sans-serif;writing-mode:lr-tb;fill:#000000;fill-opacity:1;fill-rule:nonzero;stroke:none;stroke-width:1.01390481"
   id="text2137"><tspan
     y="-229.95328"
     x="231.18613"
     style="font-style:normal;font-variant:normal;font-weight:normal;font-stretch:normal;font-size:14.51428509px;font-family:sans-serif;-inkscape-font-specification:sans-serif;letter-spacing:-0.54428571px;stroke-width:1.01390481"
     sodipodi:role="line"
     id="tspan2135">3</tspan></text>

<text
   id="text2141"
   style="font-style:normal;font-variant:normal;font-weight:normal;font-stretch:normal;font-size:14.51428509px;font-family:sans-serif;-inkscape-font-specification:sans-serif;writing-mode:lr-tb;fill:#000000;fill-opacity:1;fill-rule:nonzero;stroke:none;stroke-width:1.01390481"
   x="317.91342"
   y="-229.95328"
   transform="scale(1,-1)"><tspan
     id="tspan2139"
     sodipodi:role="line"
     style="font-style:normal;font-variant:normal;font-weight:normal;font-stretch:normal;font-size:14.51428509px;font-family:sans-serif;-inkscape-font-specification:sans-serif;letter-spacing:-0.54428571px;stroke-width:1.01390481"
     x="317.91342"
     y="-229.95328">4</tspan></text>

<text
   transform="scale(1,-1)"
   y="-229.95328"
   x="404.63721"
   style="font-style:normal;font-variant:normal;font-weight:normal;font-stretch:normal;font-size:14.51428509px;font-family:sans-serif;-inkscape-font-specification:sans-serif;writing-mode:lr-tb;fill:#000000;fill-opacity:1;fill-rule:nonzero;stroke:none;stroke-width:1.01390481"
   id="text2145"><tspan
     y="-229.95328"
     x="404.63721"
     style="font-style:normal;font-variant:normal;font-weight:normal;font-stretch:normal;font-size:14.51428509px;font-family:sans-serif;-inkscape-font-specification:sans-serif;letter-spacing:-0.54428571px;stroke-width:1.01390481"
     sodipodi:role="line"
     id="tspan2143">5</tspan></text>

<path
   d="M 45.03,246.48 H 431.15666"
   style="fill:none;stroke:#000000;stroke-width:1.08487821;stroke-linecap:square;stroke-linejoin:round;stroke-miterlimit:10;stroke-dasharray:none;stroke-opacity:1"
   id="path1046-0"
   inkscape:connector-curvature="0"
   sodipodi:nodetypes="cc" /><path
   sodipodi:nodetypes="cc"
   inkscape:connector-curvature="0"
   id="path2167"
   style="fill:none;stroke:#000000;stroke-width:1.08487821;stroke-linecap:square;stroke-linejoin:round;stroke-miterlimit:10;stroke-dasharray:none;stroke-opacity:1"
   d="M 45.03,246.48 V 426.52" /><path
   sodipodi:nodetypes="cc"
   inkscape:connector-curvature="0"
   id="path2169"
   style="fill:none;stroke:#000000;stroke-width:1.08487821;stroke-linecap:square;stroke-linejoin:round;stroke-miterlimit:10;stroke-dasharray:none;stroke-opacity:1"
   d="M 45.03,470.98 H 431.15666" /><path
   d="M 45.03,470.98 V 642.52"
   style="fill:none;stroke:#000000;stroke-width:1.08487821;stroke-linecap:square;stroke-linejoin:round;stroke-miterlimit:10;stroke-dasharray:none;stroke-opacity:1"
   id="path2171"
   inkscape:connector-curvature="0"
   sodipodi:nodetypes="cc" /><text
   y="-439.07156"
   x="131.46443"
   style="font-style:normal;font-variant:normal;font-weight:normal;font-stretch:normal;font-size:15.9657135px;font-family:sans-serif;-inkscape-font-specification:sans-serif;writing-mode:lr-tb;fill:#000000;fill-opacity:1;fill-rule:nonzero;stroke:none;stroke-width:1.01390481"
   id="text785-3"
   transform="scale(1,-1)"><tspan
     style="stroke-width:1.01390481"
     y="-439.07156"
     x="131.46443"
     sodipodi:role="line"
     id="tspan797-2">Maximal velocity (mm.s<tspan
   style="font-size:65%;baseline-shift:super"
   id="tspan2210">-1</tspan>)</tspan></text>

<text
   y="-454.45328"
   x="372.91022"
   style="font-style:normal;font-variant:normal;font-weight:normal;font-stretch:normal;font-size:14.51428509px;font-family:sans-serif;-inkscape-font-specification:sans-serif;writing-mode:lr-tb;fill:#000000;fill-opacity:1;fill-rule:nonzero;stroke:none;stroke-width:1.01390481"
   id="text1975-1"
   transform="scale(1,-1)"><tspan
     y="-454.45328"
     x="372.91022"
     style="font-style:normal;font-variant:normal;font-weight:normal;font-stretch:normal;font-size:14.51428509px;font-family:sans-serif;-inkscape-font-specification:sans-serif;letter-spacing:-0.54428571px;stroke-width:1.01390481"
     sodipodi:role="line"
     id="tspan1973-9">100</tspan></text>

<text
   transform="scale(1,-1)"
   id="text2223"
   style="font-style:normal;font-variant:normal;font-weight:normal;font-stretch:normal;font-size:14.51428509px;font-family:sans-serif;-inkscape-font-specification:sans-serif;writing-mode:lr-tb;fill:#000000;fill-opacity:1;fill-rule:nonzero;stroke:none;stroke-width:1.01390481"
   x="215.30878"
   y="-454.45328"><tspan
     id="tspan2221"
     sodipodi:role="line"
     style="font-style:normal;font-variant:normal;font-weight:normal;font-stretch:normal;font-size:14.51428509px;font-family:sans-serif;-inkscape-font-specification:sans-serif;letter-spacing:-0.54428571px;stroke-width:1.01390481"
     x="215.30878"
     y="-454.45328">10</tspan></text>

<text
   y="13.093648"
   x="99.11969"
   transform="matrix(0,1,1,0,0,0)"
   style="font-style:normal;font-variant:normal;font-weight:normal;font-stretch:normal;font-size:15.9657135px;font-family:sans-serif;-inkscape-font-specification:sans-serif;writing-mode:lr-tb;fill:#000000;fill-opacity:1;fill-rule:nonzero;stroke:none;stroke-width:1.01390481"
   id="text785-7"><tspan
     style="stroke-width:1.01390481"
     y="13.093648"
     x="99.11969"
     sodipodi:role="line"
     id="tspan797-68">Density</tspan></text>

<g
   id="g690"
   transform="translate(6.1600003,-4.3542856)"><g
     clip-path="url(#clipPath696)"
     id="g692"><path
       inkscape:connector-curvature="0"
       id="path728"
       style="fill:none;stroke:#f8766d;stroke-width:1.07000005;stroke-linecap:round;stroke-linejoin:round;stroke-miterlimit:10;stroke-dasharray:none;stroke-opacity:1"
       d="m 56.49,51.61 0.69,4.33 0.69,6.3 0.69,8.62 0.69,11.11 0.69,13.48 0.68,15.37 0.69,16.44 0.69,16.41 0.69,15.17 0.69,12.74 0.69,9.33 0.69,5.31 0.69,1.08 0.69,-2.96 0.69,-6.47 0.69,-9.21 0.69,-11.13 0.69,-12.11 0.69,-12.31 0.69,-11.92 0.69,-11.12 0.69,-10.05 0.69,-8.85 0.69,-7.63 0.69,-6.44 0.69,-5.37 0.69,-4.4 0.69,-3.57 0.69,-2.87 0.69,-2.28 0.69,-1.81 0.69,-1.42 0.69,-1.11 0.69,-0.87 0.68,-0.67 0.69,-0.52 0.69,-0.41 0.69,-0.33 0.69,-0.27 0.69,-0.22 0.69,-0.18 0.69,-0.15 0.69,-0.13 0.69,-0.1 0.69,-0.09 0.69,-0.08 0.69,-0.06 0.69,-0.06 0.69,-0.05 0.69,-0.04 0.69,-0.04 0.69,-0.03 0.69,-0.03 0.69,-0.03 0.69,-0.03 0.69,-0.03 0.69,-0.03 0.69,-0.03 0.69,-0.03 0.69,-0.02 0.69,-0.03 0.69,-0.03 0.69,-0.04 0.68,-0.03 0.69,-0.04 0.69,-0.04 0.69,-0.04 0.69,-0.04 0.69,-0.04 0.69,-0.04 0.69,-0.04 0.69,-0.05 0.69,-0.04 0.69,-0.05 0.69,-0.05 0.69,-0.06 0.69,-0.05 0.69,-0.05 0.69,-0.05 0.69,-0.05 0.69,-0.05 0.69,-0.04 0.69,-0.05 0.69,-0.04 0.69,-0.04 0.69,-0.05 0.69,-0.05 0.69,-0.05 0.69,-0.05 0.69,-0.05 0.69,-0.05 0.69,-0.04 0.68,-0.04 0.69,-0.05 0.69,-0.04 0.69,-0.04 0.69,-0.05 0.69,-0.04 0.69,-0.05 0.69,-0.05 0.69,-0.05 0.69,-0.05 0.69,-0.05 0.69,-0.04 0.69,-0.04 0.69,-0.04 0.69,-0.04 0.69,-0.03 0.69,-0.03 0.69,-0.03 0.69,-0.03 0.69,-0.02 0.69,-0.03 0.69,-0.02 0.69,-0.02 0.69,-0.02 0.69,-0.02 0.69,-0.02 0.69,-0.02 0.69,-0.02 0.69,-0.01 0.68,-0.02 0.69,-0.02 0.69,-0.01 0.69,-0.02 0.69,-0.01 0.69,-0.02 0.69,-0.01 0.69,-0.01 0.69,-0.01 0.69,-0.01 h 0.69 0.69 l 0.69,0.01 h 0.69 0.69 0.69 0.69 0.69 0.69 l 0.69,0.01 0.69,0.01 0.69,0.01 0.69,0.01 0.69,0.02 0.69,0.01 0.69,0.01 0.69,0.02 0.69,0.01 0.69,0.01 0.68,0.02 0.69,0.01 0.69,0.02 0.69,0.02 0.69,0.02 0.69,0.02 0.69,0.03 0.69,0.02 0.69,0.03 0.69,0.02 0.69,0.03 0.69,0.02 0.69,0.02 0.69,0.02 0.69,0.02 0.69,0.02 0.69,0.02 0.69,0.03 0.69,0.03 0.69,0.03 0.69,0.03 0.69,0.03 0.69,0.04 0.69,0.03 0.69,0.03 0.69,0.04 0.69,0.03 0.69,0.04 0.68,0.04 0.69,0.04 0.69,0.04 0.69,0.04 0.69,0.04 0.69,0.05 0.69,0.05 0.69,0.05 0.69,0.05 0.69,0.05 0.69,0.05 0.69,0.05 0.69,0.06 0.69,0.06 0.69,0.06 0.69,0.06 0.69,0.06 0.69,0.05 0.69,0.06 0.69,0.05 0.69,0.05 0.69,0.05 0.69,0.04 0.69,0.05 0.69,0.04 0.69,0.05 0.69,0.05 0.69,0.05 0.69,0.06 0.68,0.07 0.69,0.07 0.69,0.08 0.69,0.08 0.69,0.08 0.69,0.09 0.69,0.08 0.69,0.07 0.69,0.07 0.69,0.06 0.69,0.05 0.69,0.05 0.69,0.04 0.69,0.04 0.69,0.05 0.69,0.04 0.69,0.05 0.69,0.05 0.69,0.06 0.69,0.05 0.69,0.05 0.69,0.05 0.69,0.04 0.69,0.05 0.69,0.04 0.69,0.03 0.69,0.03 0.69,0.03 0.69,0.03 0.68,0.02 0.69,0.02 0.69,0.02 0.69,0.02 0.69,0.01 0.69,0.02 0.69,0.02 0.69,0.01 0.69,0.02 0.69,0.02 0.69,0.02 0.69,0.02 0.69,0.01 0.69,0.01 h 0.69 l 0.69,-0.01 0.69,-0.01 0.69,-0.02 0.69,-0.03 0.69,-0.04 0.69,-0.03 0.69,-0.05 0.69,-0.04 0.69,-0.05 0.69,-0.04 0.69,-0.05 0.69,-0.06 0.69,-0.05 0.69,-0.06 0.68,-0.06 0.69,-0.06 0.69,-0.07 0.69,-0.06 0.69,-0.08 0.69,-0.07 0.69,-0.08 0.69,-0.07 0.69,-0.08 0.69,-0.07 0.69,-0.07 0.69,-0.07 0.69,-0.06 0.69,-0.07 0.69,-0.07 0.69,-0.07 0.69,-0.08 0.69,-0.09 0.69,-0.09 0.69,-0.09 0.69,-0.09 0.69,-0.1 0.69,-0.09 0.69,-0.09 0.69,-0.09 0.69,-0.09 0.69,-0.09 0.69,-0.08 0.69,-0.09 0.68,-0.09 0.69,-0.1 0.69,-0.09 0.69,-0.09 0.69,-0.1 0.69,-0.09 0.69,-0.09 0.69,-0.08 0.69,-0.08 0.69,-0.08 0.69,-0.08 0.69,-0.07 0.69,-0.07 0.69,-0.06 0.69,-0.06 0.69,-0.06 0.69,-0.06 0.69,-0.06 0.69,-0.06 0.69,-0.06 0.69,-0.06 0.69,-0.06 0.69,-0.07 0.69,-0.06 0.69,-0.06 0.69,-0.06 0.69,-0.06 0.69,-0.06 0.69,-0.05 0.68,-0.05 0.69,-0.05 0.69,-0.05 0.69,-0.05 0.69,-0.04 0.69,-0.04 0.69,-0.04 0.69,-0.05 0.69,-0.04 0.69,-0.04 0.69,-0.04 0.69,-0.04 0.69,-0.04 0.69,-0.04 0.69,-0.04 0.69,-0.03 0.69,-0.03 0.69,-0.03 0.69,-0.03 0.69,-0.03 0.69,-0.02 0.69,-0.03 0.69,-0.03 0.69,-0.02 0.69,-0.02 0.69,-0.03 0.69,-0.02 0.69,-0.02 0.69,-0.02 0.68,-0.02 0.69,-0.02 0.69,-0.02 0.69,-0.01 0.69,-0.01 0.69,-0.01 0.69,-0.01 0.69,-0.01 h 0.69 l 0.69,-0.01 0.69,-0.01 0.69,-0.01 0.69,-0.01 h 0.69 l 0.69,-0.01 0.69,-0.01 0.69,-0.01 h 0.69 l 0.69,-0.01 h 0.69 l 0.69,-0.01 h 0.69 0.69 l 0.69,-0.01 h 0.69 0.69 0.69 l 0.69,-0.01 h 0.68 0.69 0.69 0.69 0.69 0.69 0.69 0.69 0.69 0.69 0.69 0.69 0.69 0.69 0.69 0.69 0.69 0.69 0.69 0.69 0.69 0.69 0.69 0.69 0.69 0.69 0.69 0.69 0.69 0.68 0.69 0.69 0.69 0.69 0.69 0.69 0.69 0.69 0.69 0.69 0.69 0.69 0.69 0.69 0.69 0.69 0.69 0.69 0.69 0.69 0.69 0.69 0.69 0.69 0.69 0.69 0.69 0.69 0.68 0.69 0.69 0.69 L 362,45.19 h 0.69 0.69 0.69 0.69 0.69 0.69 0.69 0.69 0.69 0.69 0.69 0.69 0.69 0.69 0.69 0.69 0.69 0.69 0.69 0.69 0.69 0.69 0.69 0.69 0.68 0.69 0.69 0.69 0.69 0.69 0.69 0.69 0.69 0.69 0.69 0.69 0.69 0.69 0.69 0.69 0.69 0.69 0.69 0.69 0.69 0.69 0.69 0.69 0.69 0.69 0.69 0.69 0.69 0.68 0.69 0.69 0.69 0.69 0.69 0.69 0.69 0.69 0.69 0.69 0.69 0.69 0.69 0.69 v 0 h -0.69 -0.69 -0.69 -0.69 -0.69 -0.69 -0.69 -0.69 -0.69 -0.69 -0.69 -0.69 -0.69 -0.69 -0.68 -0.69 -0.69 -0.69 -0.69 -0.69 -0.69 -0.69 -0.69 -0.69 -0.69 -0.69 -0.69 -0.69 -0.69 -0.69 -0.69 -0.69 -0.69 -0.69 -0.69 -0.69 -0.69 -0.69 -0.69 -0.69 -0.69 -0.69 -0.69 -0.68 -0.69 -0.69 -0.69 -0.69 -0.69 -0.69 -0.69 -0.69 -0.69 -0.69 -0.69 -0.69 -0.69 -0.69 -0.69 -0.69 -0.69 -0.69 -0.69 -0.69 -0.69 -0.69 -0.69 -0.69 -0.69 -0.69 -0.69 -0.69 -0.68 -0.69 -0.69 -0.69 -0.69 -0.69 -0.69 -0.69 -0.69 -0.69 -0.69 -0.69 -0.69 -0.69 -0.69 -0.69 -0.69 -0.69 -0.69 -0.69 -0.69 -0.69 -0.69 -0.69 -0.69 -0.69 -0.69 -0.69 -0.69 -0.68 -0.69 -0.69 -0.69 -0.69 -0.69 -0.69 -0.69 -0.69 -0.69 -0.69 -0.69 -0.69 -0.69 -0.69 -0.69 -0.69 -0.69 -0.69 -0.69 -0.69 -0.69 -0.69 -0.69 -0.69 -0.69 -0.69 -0.69 -0.69 -0.68 -0.69 -0.69 -0.69 -0.69 -0.69 -0.69 -0.69 -0.69 -0.69 -0.69 -0.69 -0.69 -0.69 -0.69 -0.69 -0.69 -0.69 -0.69 -0.69 -0.69 -0.69 -0.69 -0.69 -0.69 -0.69 -0.69 -0.69 -0.68 -0.69 -0.69 -0.69 -0.69 -0.69 -0.69 -0.69 -0.69 -0.69 -0.69 -0.69 -0.69 -0.69 -0.69 -0.69 -0.69 -0.69 -0.69 -0.69 -0.69 -0.69 -0.69 -0.69 -0.69 -0.69 -0.69 -0.69 -0.69 -0.68 -0.69 -0.69 -0.69 -0.69 -0.69 -0.69 -0.69 -0.69 -0.69 -0.69 -0.69 -0.69 -0.69 -0.69 -0.69 -0.69 -0.69 -0.69 -0.69 -0.69 -0.69 -0.69 -0.69 -0.69 -0.69 -0.69 -0.69 -0.69 -0.68 -0.69 -0.69 -0.69 -0.69 -0.69 -0.69 -0.69 -0.69 -0.69 -0.69 -0.69 -0.69 -0.69 -0.69 -0.69 -0.69 -0.69 -0.69 -0.69 -0.69 -0.69 -0.69 -0.69 -0.69 -0.69 -0.69 -0.69 -0.69 -0.68 -0.69 -0.69 -0.69 -0.69 -0.69 -0.69 -0.69 -0.69 -0.69 -0.69 -0.69 -0.69 -0.69 -0.69 -0.69 -0.69 -0.69 -0.69 -0.69 -0.69 -0.69 -0.69 -0.69 -0.69 -0.69 -0.69 -0.69 -0.69 -0.68 -0.69 -0.69 -0.69 -0.69 -0.69 -0.69 -0.69 -0.69 -0.69 -0.69 -0.69 -0.69 -0.69 -0.69 -0.69 -0.69 -0.69 -0.69 -0.69 -0.69 -0.69 -0.69 -0.69 -0.69 -0.69 -0.69 -0.69 -0.69 -0.68 -0.69 -0.69 -0.69 -0.69 -0.69 -0.69 -0.69 -0.69 -0.69 -0.69 -0.69 -0.69 -0.69 -0.69 -0.69 -0.69 -0.69 -0.69 -0.69 -0.69 -0.69 -0.69 -0.69 -0.69 -0.69 -0.69 -0.69 -0.69 -0.68 -0.69 -0.69 -0.69 -0.69 -0.69 -0.69 -0.69 -0.69 -0.69 -0.69 -0.69 -0.69 -0.69 -0.69 -0.69 -0.69 -0.69 -0.69 -0.69 -0.69 -0.69 -0.69 -0.69 -0.69 -0.69 -0.69 -0.69 -0.68 -0.69 -0.69 -0.69 -0.69 -0.69 -0.69 -0.69 -0.69 -0.69 -0.69 -0.69 -0.69 -0.69 -0.69 -0.69 -0.69 -0.69 -0.69 -0.69 -0.69 -0.69 -0.69 -0.69 -0.69 -0.69 -0.69 -0.69 -0.69 -0.68 -0.69 -0.69 -0.69 -0.69 -0.69 -0.69 -0.69 -0.69 -0.69 -0.69 -0.69 -0.69 -0.69 -0.69 -0.69 -0.69 -0.69 -0.69 -0.69 -0.69 -0.69 -0.69 -0.69 -0.69 -0.69 -0.69 -0.69 -0.69 -0.68 -0.69 -0.69 -0.69 -0.69 -0.69 -0.69 -0.69 -0.69 -0.69 -0.69 -0.69 -0.69 -0.69 -0.69 -0.69 -0.69 -0.69 -0.69 -0.69 -0.69 -0.69 -0.69 -0.69 -0.69 -0.69 H 102 101.31 100.62 99.94 99.25 98.56 97.87 97.18 96.49 95.8 95.11 94.42 93.73 93.04 92.35 91.66 90.97 90.28 89.59 88.9 88.21 87.52 86.83 86.14 85.45 84.76 84.07 83.38 82.69 82 81.31 80.62 79.94 79.25 78.56 77.87 77.18 76.49 75.8 75.11 74.42 73.73 73.04 72.35 71.66 70.97 70.28 69.59 68.9 68.21 67.52 66.83 66.14 65.45 64.76 64.07 63.38 62.69 62 61.31 60.62 59.94 59.25 58.56 57.87 57.18 56.49 v 6.42" /><path
       sodipodi:nodetypes="cc"
       inkscape:connector-curvature="0"
       id="path734"
       style="fill:none;stroke:#000000;stroke-width:4.26999998;stroke-linecap:butt;stroke-linejoin:round;stroke-miterlimit:10;stroke-dasharray:4.27, 12.8;stroke-dashoffset:0;stroke-opacity:0.70200004"
       d="M 137.91,37.31 V 206.02" /><path
       inkscape:connector-curvature="0"
       id="path730"
       style="fill:none;stroke:#00ba38;stroke-width:1.07000005;stroke-linecap:round;stroke-linejoin:round;stroke-miterlimit:10;stroke-dasharray:none;stroke-opacity:1"
       d="m 56.49,46.79 0.69,1.54 0.69,2.66 0.69,4.27 0.69,6.4 0.69,9.01 0.68,11.86 0.69,14.62 0.69,16.86 0.69,18.15 0.69,18.1 0.69,16.57 0.69,13.6 0.69,9.5 0.69,4.71 0.69,-0.21 0.69,-4.98 0.69,-8.64 0.69,-11.3 0.69,-12.91 0.69,-13.54 0.69,-13.4 0.69,-12.64 0.69,-11.5 0.69,-10.13 0.69,-8.69 0.69,-7.3 0.69,-6.02 0.69,-4.88 0.69,-3.92 0.69,-3.1 0.69,-2.45 0.69,-1.91 0.69,-1.48 0.69,-1.15 0.68,-0.9 0.69,-0.68 0.69,-0.53 0.69,-0.41 0.69,-0.32 0.69,-0.24 0.69,-0.19 0.69,-0.13 0.69,-0.1 0.69,-0.08 0.69,-0.05 0.69,-0.04 0.69,-0.04 0.69,-0.02 0.69,-0.03 0.69,-0.02 0.69,-0.03 0.69,-0.03 0.69,-0.04 0.69,-0.04 0.69,-0.05 0.69,-0.05 0.69,-0.05 0.69,-0.05 0.69,-0.04 0.69,-0.05 0.69,-0.04 0.69,-0.04 0.69,-0.04 0.68,-0.04 0.69,-0.05 0.69,-0.06 0.69,-0.06 0.69,-0.08 0.69,-0.08 0.69,-0.08 0.69,-0.09 0.69,-0.09 0.69,-0.09 0.69,-0.09 0.69,-0.08 0.69,-0.09 0.69,-0.09 0.69,-0.09 0.69,-0.08 0.69,-0.09 0.69,-0.07 0.69,-0.07 0.69,-0.06 0.69,-0.06 0.69,-0.06 0.69,-0.06 0.69,-0.06 0.69,-0.07 0.69,-0.06 0.69,-0.07 0.69,-0.06 0.69,-0.07 0.68,-0.06 0.69,-0.06 0.69,-0.05 0.69,-0.04 0.69,-0.04 0.69,-0.03 0.69,-0.02 0.69,-0.02 0.69,-0.02 0.69,-0.01 0.69,-0.02 0.69,-0.02 0.69,-0.01 0.69,-0.02 0.69,-0.02 0.69,-0.03 0.69,-0.02 0.69,-0.02 0.69,-0.02 0.69,-0.01 0.69,-0.01 0.69,-0.01 h 0.69 0.69 0.69 l 0.69,0.01 h 0.69 l 0.69,0.01 0.69,0.01 h 0.68 l 0.69,0.01 h 0.69 0.69 l 0.69,0.01 h 0.69 0.69 l 0.69,0.01 0.69,0.01 0.69,0.01 0.69,0.01 0.69,0.02 0.69,0.01 0.69,0.02 0.69,0.02 0.69,0.03 0.69,0.03 0.69,0.03 0.69,0.05 0.69,0.05 0.69,0.05 0.69,0.05 0.69,0.05 0.69,0.05 0.69,0.05 0.69,0.04 0.69,0.05 0.69,0.04 0.69,0.05 0.68,0.06 0.69,0.05 0.69,0.06 0.69,0.07 0.69,0.07 0.69,0.06 0.69,0.07 0.69,0.07 0.69,0.07 0.69,0.07 0.69,0.08 0.69,0.08 0.69,0.09 0.69,0.09 0.69,0.1 0.69,0.1 0.69,0.09 0.69,0.1 0.69,0.08 0.69,0.08 0.69,0.08 0.69,0.08 0.69,0.07 0.69,0.08 0.69,0.08 0.69,0.09 0.69,0.08 0.69,0.09 0.68,0.09 0.69,0.08 0.69,0.09 0.69,0.08 0.69,0.08 0.69,0.07 0.69,0.08 0.69,0.07 0.69,0.07 0.69,0.07 0.69,0.07 0.69,0.07 0.69,0.07 0.69,0.06 0.69,0.06 0.69,0.05 0.69,0.05 0.69,0.04 0.69,0.03 0.69,0.04 0.69,0.03 0.69,0.04 0.69,0.05 0.69,0.04 0.69,0.04 0.69,0.03 0.69,0.04 0.69,0.02 0.69,0.03 0.68,0.02 0.69,0.01 0.69,0.01 H 202 l 0.69,-0.01 0.69,-0.01 0.69,-0.02 0.69,-0.03 0.69,-0.03 0.69,-0.03 0.69,-0.04 0.69,-0.04 0.69,-0.04 0.69,-0.05 0.69,-0.04 0.69,-0.03 0.69,-0.04 0.69,-0.04 0.69,-0.04 0.69,-0.04 0.69,-0.05 0.69,-0.05 0.69,-0.07 0.69,-0.07 0.69,-0.07 0.69,-0.08 0.69,-0.08 0.69,-0.08 0.69,-0.08 0.68,-0.08 0.69,-0.08 0.69,-0.09 0.69,-0.08 0.69,-0.09 0.69,-0.08 0.69,-0.09 0.69,-0.09 0.69,-0.09 0.69,-0.08 0.69,-0.09 0.69,-0.09 0.69,-0.08 0.69,-0.09 0.69,-0.09 0.69,-0.1 0.69,-0.1 0.69,-0.1 0.69,-0.11 0.69,-0.1 0.69,-0.1 0.69,-0.09 0.69,-0.09 0.69,-0.1 0.69,-0.09 0.69,-0.1 0.69,-0.09 0.69,-0.1 0.69,-0.1 0.68,-0.1 0.69,-0.1 0.69,-0.09 0.69,-0.1 0.69,-0.1 0.69,-0.09 0.69,-0.09 0.69,-0.09 0.69,-0.09 0.69,-0.09 0.69,-0.08 0.69,-0.08 0.69,-0.09 0.69,-0.08 0.69,-0.09 0.69,-0.08 0.69,-0.1 0.69,-0.09 0.69,-0.09 0.69,-0.09 0.69,-0.08 0.69,-0.08 0.69,-0.08 0.69,-0.06 0.69,-0.07 0.69,-0.06 0.69,-0.06 0.69,-0.05 0.69,-0.06 0.68,-0.05 0.69,-0.05 0.69,-0.05 0.69,-0.05 0.69,-0.04 0.69,-0.05 0.69,-0.03 0.69,-0.04 0.69,-0.03 0.69,-0.03 0.69,-0.03 0.69,-0.02 0.69,-0.03 0.69,-0.01 0.69,-0.02 0.69,-0.02 0.69,-0.01 0.69,-0.02 0.69,-0.01 0.69,-0.01 0.69,-0.01 0.69,-0.02 0.69,-0.01 0.69,-0.01 0.69,-0.01 0.69,-0.01 0.69,-0.01 h 0.69 l 0.69,-0.01 0.68,-0.01 h 0.69 0.69 L 282,45.21 h 0.69 0.69 0.69 0.69 0.69 0.69 l 0.69,-0.01 h 0.69 0.69 0.69 0.69 0.69 0.69 0.69 0.69 0.69 0.69 0.69 0.69 0.69 0.69 0.69 0.69 0.69 0.69 0.68 0.69 0.69 0.69 0.69 0.69 0.69 0.69 0.69 0.69 0.69 0.69 0.69 0.69 0.69 0.69 0.69 0.69 0.69 0.69 0.69 0.69 0.69 0.69 0.69 0.69 0.69 0.69 0.68 0.69 0.69 0.69 0.69 0.69 0.69 0.69 0.69 0.69 0.69 0.69 0.69 0.69 0.69 0.69 0.69 0.69 0.69 0.69 0.69 0.69 0.69 0.69 0.69 0.69 0.69 0.69 0.69 0.68 0.69 0.69 0.69 0.69 0.69 0.69 0.69 0.69 0.69 0.69 0.69 0.69 0.69 0.69 0.69 0.69 0.69 0.69 0.69 l 0.69,-0.01 h 0.69 0.69 0.69 0.69 0.69 0.69 0.69 0.69 0.68 0.69 0.69 0.69 0.69 0.69 0.69 0.69 0.69 0.69 0.69 0.69 0.69 0.69 0.69 0.69 0.69 0.69 0.69 0.69 0.69 0.69 0.69 0.69 0.69 0.69 0.69 0.69 0.69 0.68 0.69 0.69 0.69 0.69 0.69 0.69 0.69 0.69 0.69 0.69 0.69 0.69 0.69 0.69 0.69 0.69 0.69 0.69 0.69 0.69 0.69 0.69 0.69 0.69 0.69 0.69 0.69 0.69 0.68 0.69 0.69 0.69 0.69 0.69 0.69 0.69 0.69 0.69 0.69 0.69 0.69 0.69 0.69 v 0 h -0.69 -0.69 -0.69 -0.69 -0.69 -0.69 -0.69 -0.69 -0.69 -0.69 -0.69 -0.69 -0.69 -0.69 -0.68 -0.69 -0.69 -0.69 -0.69 -0.69 -0.69 -0.69 -0.69 -0.69 -0.69 -0.69 -0.69 -0.69 -0.69 -0.69 -0.69 -0.69 -0.69 -0.69 -0.69 -0.69 -0.69 -0.69 -0.69 -0.69 -0.69 -0.69 -0.69 -0.68 -0.69 -0.69 -0.69 -0.69 -0.69 -0.69 -0.69 -0.69 -0.69 -0.69 -0.69 -0.69 -0.69 -0.69 -0.69 -0.69 -0.69 -0.69 -0.69 -0.69 -0.69 -0.69 -0.69 -0.69 -0.69 -0.69 -0.69 -0.69 -0.68 -0.69 -0.69 -0.69 -0.69 -0.69 -0.69 -0.69 -0.69 -0.69 -0.69 -0.69 -0.69 -0.69 -0.69 -0.69 -0.69 -0.69 -0.69 -0.69 -0.69 -0.69 -0.69 -0.69 -0.69 -0.69 -0.69 -0.69 -0.69 -0.68 -0.69 -0.69 -0.69 -0.69 -0.69 -0.69 -0.69 -0.69 -0.69 -0.69 -0.69 -0.69 -0.69 -0.69 -0.69 -0.69 -0.69 -0.69 -0.69 -0.69 -0.69 -0.69 -0.69 -0.69 -0.69 -0.69 -0.69 -0.69 -0.68 -0.69 -0.69 -0.69 -0.69 -0.69 -0.69 -0.69 -0.69 -0.69 -0.69 -0.69 -0.69 -0.69 -0.69 -0.69 -0.69 -0.69 -0.69 -0.69 -0.69 -0.69 -0.69 -0.69 -0.69 -0.69 -0.69 -0.69 -0.68 -0.69 -0.69 -0.69 -0.69 -0.69 -0.69 -0.69 -0.69 -0.69 -0.69 -0.69 -0.69 -0.69 -0.69 -0.69 -0.69 -0.69 -0.69 -0.69 -0.69 -0.69 -0.69 -0.69 -0.69 -0.69 -0.69 -0.69 -0.69 -0.68 -0.69 -0.69 -0.69 -0.69 -0.69 -0.69 -0.69 -0.69 -0.69 -0.69 -0.69 -0.69 -0.69 -0.69 -0.69 -0.69 -0.69 -0.69 -0.69 -0.69 -0.69 -0.69 -0.69 -0.69 -0.69 -0.69 -0.69 -0.69 -0.68 -0.69 -0.69 -0.69 -0.69 -0.69 -0.69 -0.69 -0.69 -0.69 -0.69 -0.69 -0.69 -0.69 -0.69 -0.69 -0.69 -0.69 -0.69 -0.69 -0.69 -0.69 -0.69 -0.69 -0.69 -0.69 -0.69 -0.69 -0.69 -0.68 -0.69 -0.69 -0.69 -0.69 -0.69 -0.69 -0.69 -0.69 -0.69 -0.69 -0.69 -0.69 -0.69 -0.69 -0.69 -0.69 -0.69 -0.69 -0.69 -0.69 -0.69 -0.69 -0.69 -0.69 -0.69 -0.69 -0.69 -0.69 -0.68 -0.69 -0.69 -0.69 -0.69 -0.69 -0.69 -0.69 -0.69 -0.69 -0.69 -0.69 -0.69 -0.69 -0.69 -0.69 -0.69 -0.69 -0.69 -0.69 -0.69 -0.69 -0.69 -0.69 -0.69 -0.69 -0.69 -0.69 -0.69 -0.68 -0.69 -0.69 -0.69 -0.69 -0.69 -0.69 -0.69 -0.69 -0.69 -0.69 -0.69 -0.69 -0.69 -0.69 -0.69 -0.69 -0.69 -0.69 -0.69 -0.69 -0.69 -0.69 -0.69 -0.69 -0.69 -0.69 -0.69 -0.69 -0.68 -0.69 -0.69 -0.69 -0.69 -0.69 -0.69 -0.69 -0.69 -0.69 -0.69 -0.69 -0.69 -0.69 -0.69 -0.69 -0.69 -0.69 -0.69 -0.69 -0.69 -0.69 -0.69 -0.69 -0.69 -0.69 -0.69 -0.69 -0.68 -0.69 -0.69 -0.69 -0.69 -0.69 -0.69 -0.69 -0.69 -0.69 -0.69 -0.69 -0.69 -0.69 -0.69 -0.69 -0.69 -0.69 -0.69 -0.69 -0.69 -0.69 -0.69 -0.69 -0.69 -0.69 -0.69 -0.69 -0.69 -0.68 -0.69 -0.69 -0.69 -0.69 -0.69 -0.69 -0.69 -0.69 -0.69 -0.69 -0.69 -0.69 -0.69 -0.69 -0.69 -0.69 -0.69 -0.69 -0.69 -0.69 -0.69 -0.69 -0.69 -0.69 -0.69 -0.69 -0.69 -0.69 -0.68 -0.69 -0.69 -0.69 -0.69 -0.69 -0.69 -0.69 -0.69 -0.69 -0.69 -0.69 -0.69 -0.69 -0.69 -0.69 -0.69 -0.69 -0.69 -0.69 -0.69 -0.69 -0.69 -0.69 -0.69 -0.69 H 102 101.31 100.62 99.94 99.25 98.56 97.87 97.18 96.49 95.8 95.11 94.42 93.73 93.04 92.35 91.66 90.97 90.28 89.59 88.9 88.21 87.52 86.83 86.14 85.45 84.76 84.07 83.38 82.69 82 81.31 80.62 79.94 79.25 78.56 77.87 77.18 76.49 75.8 75.11 74.42 73.73 73.04 72.35 71.66 70.97 70.28 69.59 68.9 68.21 67.52 66.83 66.14 65.45 64.76 64.07 63.38 62.69 62 61.31 60.62 59.94 59.25 58.56 57.87 57.18 56.49 v 1.6" /><path
       sodipodi:nodetypes="cc"
       d="M 85.74,37.31 V 206.02"
       style="fill:none;stroke:#000000;stroke-width:4.26999998;stroke-linecap:butt;stroke-linejoin:round;stroke-miterlimit:10;stroke-dasharray:17.07, 17.07;stroke-dashoffset:0;stroke-opacity:0.70200004"
       id="path1897"
       inkscape:connector-curvature="0" /><path
       inkscape:connector-curvature="0"
       id="path732"
       style="fill:none;stroke:#619cff;stroke-width:1.07000005;stroke-linecap:round;stroke-linejoin:round;stroke-miterlimit:10;stroke-dasharray:none;stroke-opacity:1"
       d="m 56.49,45.32 0.69,0.23 0.69,0.51 0.69,1.06 0.69,2.02 0.69,3.53 0.68,5.69 0.69,8.47 0.69,11.67 0.69,14.91 0.69,17.73 0.69,19.54 0.69,19.94 0.69,18.65 0.69,15.67 0.69,11.3 0.69,6 0.69,0.41 0.69,-4.88 0.69,-9.31 0.69,-12.66 0.69,-14.51 0.69,-15.15 0.69,-14.81 0.69,-13.78 0.69,-12.33 0.69,-10.67 0.69,-9 0.69,-7.42 0.69,-5.98 0.69,-4.74 0.69,-3.7 0.69,-2.87 0.69,-2.2 0.69,-1.69 0.68,-1.3 0.69,-0.99 0.69,-0.76 0.69,-0.57 0.69,-0.43 0.69,-0.33 0.69,-0.24 0.69,-0.19 0.69,-0.13 0.69,-0.1 0.69,-0.07 0.69,-0.05 0.69,-0.03 0.69,-0.03 0.69,-0.03 0.69,-0.04 0.69,-0.07 0.69,-0.08 0.69,-0.09 0.69,-0.12 0.69,-0.12 0.69,-0.13 0.69,-0.13 0.69,-0.12 0.69,-0.12 0.69,-0.1 0.69,-0.11 0.69,-0.1 0.69,-0.09 0.68,-0.1 0.69,-0.1 0.69,-0.1 0.69,-0.1 0.69,-0.09 0.69,-0.1 0.69,-0.09 0.69,-0.08 0.69,-0.09 0.69,-0.08 0.69,-0.08 0.69,-0.07 0.69,-0.06 0.69,-0.06 0.69,-0.05 0.69,-0.05 0.69,-0.05 0.69,-0.06 0.69,-0.05 0.69,-0.05 0.69,-0.05 0.69,-0.05 0.69,-0.05 0.69,-0.04 0.69,-0.05 0.69,-0.05 0.69,-0.05 0.69,-0.04 0.69,-0.04 0.68,-0.03 0.69,-0.02 0.69,-0.02 h 0.69 l 0.69,0.01 0.69,0.01 h 0.69 l 0.69,0.01 h 0.69 l 0.69,-0.01 h 0.69 l 0.69,-0.01 0.69,0.01 0.69,0.01 0.69,0.02 0.69,0.02 0.69,0.03 0.69,0.04 0.69,0.03 0.69,0.04 0.69,0.04 0.69,0.04 0.69,0.04 0.69,0.05 0.69,0.06 0.69,0.07 0.69,0.08 0.69,0.08 0.69,0.08 0.68,0.09 0.69,0.1 0.69,0.1 0.69,0.11 0.69,0.11 0.69,0.1 0.69,0.1 0.69,0.1 0.69,0.1 0.69,0.09 0.69,0.1 0.69,0.1 0.69,0.11 0.69,0.11 0.69,0.1 0.69,0.11 0.69,0.1 0.69,0.11 0.69,0.1 0.69,0.1 0.69,0.11 0.69,0.11 0.69,0.11 0.69,0.12 0.69,0.11 0.69,0.12 0.69,0.1 0.69,0.1 0.69,0.09 0.68,0.08 0.69,0.07 0.69,0.07 0.69,0.06 0.69,0.04 0.69,0.05 0.69,0.03 0.69,0.03 0.69,0.02 0.69,0.02 0.69,0.03 0.69,0.03 0.69,0.03 0.69,0.02 0.69,0.01 h 0.69 0.69 0.69 0.69 l 0.69,-0.01 0.69,-0.01 0.69,-0.02 0.69,-0.01 0.69,-0.03 0.69,-0.02 0.69,-0.02 0.69,-0.03 0.69,-0.03 0.68,-0.03 0.69,-0.05 0.69,-0.05 0.69,-0.06 0.69,-0.07 0.69,-0.06 0.69,-0.07 0.69,-0.06 0.69,-0.06 0.69,-0.06 0.69,-0.07 0.69,-0.06 0.69,-0.07 0.69,-0.08 0.69,-0.08 0.69,-0.09 0.69,-0.08 0.69,-0.07 0.69,-0.06 0.69,-0.07 0.69,-0.06 0.69,-0.07 0.69,-0.09 0.69,-0.09 0.69,-0.11 0.69,-0.12 0.69,-0.12 0.69,-0.1 0.69,-0.1 0.68,-0.09 0.69,-0.08 0.69,-0.08 0.69,-0.09 0.69,-0.09 0.69,-0.11 0.69,-0.1 0.69,-0.1 0.69,-0.1 0.69,-0.1 0.69,-0.1 0.69,-0.09 0.69,-0.1 0.69,-0.1 0.69,-0.11 0.69,-0.1 0.69,-0.11 0.69,-0.11 0.69,-0.11 0.69,-0.12 0.69,-0.11 0.69,-0.11 0.69,-0.12 0.69,-0.1 0.69,-0.1 0.69,-0.09 0.69,-0.08 0.69,-0.08 0.69,-0.08 0.68,-0.09 0.69,-0.08 0.69,-0.08 0.69,-0.08 0.69,-0.08 0.69,-0.08 0.69,-0.07 0.69,-0.07 0.69,-0.06 0.69,-0.06 0.69,-0.06 0.69,-0.05 0.69,-0.05 0.69,-0.05 0.69,-0.05 0.69,-0.05 0.69,-0.05 0.69,-0.05 0.69,-0.05 0.69,-0.05 0.69,-0.04 0.69,-0.05 0.69,-0.04 0.69,-0.04 0.69,-0.04 0.69,-0.04 0.69,-0.03 0.69,-0.04 0.69,-0.04 0.68,-0.03 0.69,-0.04 0.69,-0.03 0.69,-0.02 0.69,-0.03 0.69,-0.02 0.69,-0.03 0.69,-0.02 0.69,-0.03 0.69,-0.02 0.69,-0.02 0.69,-0.02 0.69,-0.02 0.69,-0.02 0.69,-0.02 0.69,-0.02 0.69,-0.01 0.69,-0.02 0.69,-0.01 0.69,-0.02 0.69,-0.01 0.69,-0.01 0.69,-0.01 0.69,-0.02 0.69,-0.01 0.69,-0.01 0.69,-0.01 h 0.69 l 0.69,-0.01 0.68,-0.01 h 0.69 l 0.69,-0.01 H 262 l 0.69,-0.01 h 0.69 l 0.69,-0.01 h 0.69 0.69 l 0.69,-0.01 h 0.69 0.69 0.69 0.69 0.69 0.69 l 0.69,-0.01 h 0.69 0.69 0.69 0.69 0.69 0.69 l 0.69,-0.01 h 0.69 0.69 0.69 0.69 0.69 0.68 0.69 0.69 0.69 0.69 0.69 0.69 0.69 0.69 0.69 0.69 0.69 l 0.69,0.01 h 0.69 0.69 l 0.69,-0.01 h 0.69 0.69 0.69 0.69 0.69 0.69 0.69 0.69 0.69 0.69 0.69 0.69 0.69 0.68 0.69 0.69 0.69 0.69 0.69 0.69 0.69 0.69 0.69 0.69 0.69 0.69 0.69 0.69 0.69 0.69 0.69 0.69 0.69 0.69 0.69 0.69 0.69 0.69 0.69 0.69 0.69 0.68 0.69 0.69 0.69 0.69 0.69 0.69 0.69 0.69 0.69 0.69 0.69 0.69 0.69 0.69 0.69 0.69 0.69 0.69 0.69 0.69 0.69 0.69 0.69 0.69 0.69 0.69 0.69 0.69 0.68 0.69 0.69 0.69 0.69 0.69 0.69 0.69 0.69 0.69 0.69 0.69 0.69 0.69 0.69 0.69 0.69 0.69 0.69 0.69 0.69 0.69 0.69 0.69 0.69 0.69 0.69 0.69 l 0.69,-0.01 h 0.68 0.69 0.69 l 0.69,0.01 h 0.69 0.69 0.69 0.69 0.69 0.69 0.69 0.69 0.69 0.69 0.69 0.69 0.69 0.69 0.69 0.69 0.69 0.69 0.69 l 0.69,-0.01 h 0.69 0.69 0.69 0.69 0.69 0.68 0.69 0.69 0.69 0.69 0.69 0.69 0.69 0.69 0.69 0.69 0.69 0.69 0.69 0.69 0.69 0.69 0.69 0.69 0.69 0.69 0.69 0.69 0.69 0.69 0.69 0.69 0.69 0.69 0.68 0.69 0.69 0.69 0.69 0.69 0.69 0.69 0.69 0.69 0.69 0.69 0.69 0.69 0.69 v 0 h -0.69 -0.69 -0.69 -0.69 -0.69 -0.69 -0.69 -0.69 -0.69 -0.69 -0.69 -0.69 -0.69 -0.69 -0.68 -0.69 -0.69 -0.69 -0.69 -0.69 -0.69 -0.69 -0.69 -0.69 -0.69 -0.69 -0.69 -0.69 -0.69 -0.69 -0.69 -0.69 -0.69 -0.69 -0.69 -0.69 -0.69 -0.69 -0.69 -0.69 -0.69 -0.69 -0.69 -0.68 -0.69 -0.69 -0.69 -0.69 -0.69 -0.69 -0.69 -0.69 -0.69 -0.69 -0.69 -0.69 -0.69 -0.69 -0.69 -0.69 -0.69 -0.69 -0.69 -0.69 -0.69 -0.69 -0.69 -0.69 -0.69 -0.69 -0.69 -0.69 -0.68 -0.69 -0.69 -0.69 -0.69 -0.69 -0.69 -0.69 -0.69 -0.69 -0.69 -0.69 -0.69 -0.69 -0.69 -0.69 -0.69 -0.69 -0.69 -0.69 -0.69 -0.69 -0.69 -0.69 -0.69 -0.69 -0.69 -0.69 -0.69 -0.68 -0.69 -0.69 -0.69 -0.69 -0.69 -0.69 -0.69 -0.69 -0.69 -0.69 -0.69 -0.69 -0.69 -0.69 -0.69 -0.69 -0.69 -0.69 -0.69 -0.69 -0.69 -0.69 -0.69 -0.69 -0.69 -0.69 -0.69 -0.69 -0.68 -0.69 -0.69 -0.69 -0.69 -0.69 -0.69 -0.69 -0.69 -0.69 -0.69 -0.69 -0.69 -0.69 -0.69 -0.69 -0.69 -0.69 -0.69 -0.69 -0.69 -0.69 -0.69 -0.69 -0.69 -0.69 -0.69 -0.69 -0.68 -0.69 -0.69 -0.69 -0.69 -0.69 -0.69 -0.69 -0.69 -0.69 -0.69 -0.69 -0.69 -0.69 -0.69 -0.69 -0.69 -0.69 -0.69 -0.69 -0.69 -0.69 -0.69 -0.69 -0.69 -0.69 -0.69 -0.69 -0.69 -0.68 -0.69 -0.69 -0.69 -0.69 -0.69 -0.69 -0.69 -0.69 -0.69 -0.69 -0.69 -0.69 -0.69 -0.69 -0.69 -0.69 -0.69 -0.69 -0.69 -0.69 -0.69 -0.69 -0.69 -0.69 -0.69 -0.69 -0.69 -0.69 -0.68 -0.69 -0.69 -0.69 -0.69 -0.69 -0.69 -0.69 -0.69 -0.69 -0.69 -0.69 -0.69 -0.69 -0.69 -0.69 -0.69 -0.69 -0.69 -0.69 -0.69 -0.69 -0.69 -0.69 -0.69 -0.69 -0.69 -0.69 -0.69 -0.68 -0.69 -0.69 -0.69 -0.69 -0.69 -0.69 -0.69 -0.69 -0.69 -0.69 -0.69 -0.69 -0.69 -0.69 -0.69 -0.69 -0.69 -0.69 -0.69 -0.69 -0.69 -0.69 -0.69 -0.69 -0.69 -0.69 -0.69 -0.69 -0.68 -0.69 -0.69 -0.69 -0.69 -0.69 -0.69 -0.69 -0.69 -0.69 -0.69 -0.69 -0.69 -0.69 -0.69 -0.69 -0.69 -0.69 -0.69 -0.69 -0.69 -0.69 -0.69 -0.69 -0.69 -0.69 -0.69 -0.69 -0.69 -0.68 -0.69 -0.69 -0.69 -0.69 -0.69 -0.69 -0.69 -0.69 -0.69 -0.69 -0.69 -0.69 -0.69 -0.69 -0.69 -0.69 -0.69 -0.69 -0.69 -0.69 -0.69 -0.69 -0.69 -0.69 -0.69 -0.69 -0.69 -0.69 -0.68 -0.69 -0.69 -0.69 -0.69 -0.69 -0.69 -0.69 -0.69 -0.69 -0.69 -0.69 -0.69 -0.69 -0.69 -0.69 -0.69 -0.69 -0.69 -0.69 -0.69 -0.69 -0.69 -0.69 -0.69 -0.69 -0.69 -0.69 -0.68 -0.69 -0.69 -0.69 -0.69 -0.69 -0.69 -0.69 -0.69 -0.69 -0.69 -0.69 -0.69 -0.69 -0.69 -0.69 -0.69 -0.69 -0.69 -0.69 -0.69 -0.69 -0.69 -0.69 -0.69 -0.69 -0.69 -0.69 -0.69 -0.68 -0.69 -0.69 -0.69 -0.69 -0.69 -0.69 -0.69 -0.69 -0.69 -0.69 -0.69 -0.69 -0.69 -0.69 -0.69 -0.69 -0.69 -0.69 -0.69 -0.69 -0.69 -0.69 -0.69 -0.69 -0.69 -0.69 -0.69 -0.69 -0.68 -0.69 -0.69 -0.69 -0.69 -0.69 -0.69 -0.69 -0.69 -0.69 -0.69 -0.69 -0.69 -0.69 -0.69 -0.69 -0.69 -0.69 -0.69 -0.69 -0.69 -0.69 -0.69 -0.69 -0.69 -0.69 H 102 101.31 100.62 99.94 99.25 98.56 97.87 97.18 96.49 95.8 95.11 94.42 93.73 93.04 92.35 91.66 90.97 90.28 89.59 88.9 88.21 87.52 86.83 86.14 85.45 84.76 84.07 83.38 82.69 82 81.31 80.62 79.94 79.25 78.56 77.87 77.18 76.49 75.8 75.11 74.42 73.73 73.04 72.35 71.66 70.97 70.28 69.59 68.9 68.21 67.52 66.83 66.14 65.45 64.76 64.07 63.38 62.69 62 61.31 60.62 59.94 59.25 58.56 57.87 57.18 56.49 v 0.13" /></g></g><path
   d="m 42.29,40.835714 h 2.74"
   style="fill:none;stroke:#0e0000;stroke-width:1.07000005;stroke-linecap:butt;stroke-linejoin:round;stroke-miterlimit:10;stroke-dasharray:none;stroke-opacity:1"
   id="path790"
   inkscape:connector-curvature="0" /><path
   d="m 42.29,84.295714 h 2.74"
   style="fill:none;stroke:#0e0000;stroke-width:1.07000005;stroke-linecap:butt;stroke-linejoin:round;stroke-miterlimit:10;stroke-dasharray:none;stroke-opacity:1"
   id="path792"
   inkscape:connector-curvature="0" /><path
   d="m 42.29,127.75571 h 2.74"
   style="fill:none;stroke:#0e0000;stroke-width:1.07000005;stroke-linecap:butt;stroke-linejoin:round;stroke-miterlimit:10;stroke-dasharray:none;stroke-opacity:1"
   id="path794"
   inkscape:connector-curvature="0" /><path
   d="m 42.29,171.21571 h 2.74"
   style="fill:none;stroke:#0e0000;stroke-width:1.07000005;stroke-linecap:butt;stroke-linejoin:round;stroke-miterlimit:10;stroke-dasharray:none;stroke-opacity:1"
   id="path796"
   inkscape:connector-curvature="0" /><path
   d="m 91.9,30.215714 v 2.74"
   style="fill:none;stroke:#0e0000;stroke-width:1.07000005;stroke-linecap:butt;stroke-linejoin:round;stroke-miterlimit:10;stroke-dasharray:none;stroke-opacity:1"
   id="path818"
   inkscape:connector-curvature="0" /><path
   d="m 223.01,30.215714 v 2.74"
   style="fill:none;stroke:#0e0000;stroke-width:1.07000005;stroke-linecap:butt;stroke-linejoin:round;stroke-miterlimit:10;stroke-dasharray:none;stroke-opacity:1"
   id="path820"
   inkscape:connector-curvature="0" /><path
   d="m 354.11,30.215714 v 2.74"
   style="fill:none;stroke:#0e0000;stroke-width:1.07000005;stroke-linecap:butt;stroke-linejoin:round;stroke-miterlimit:10;stroke-dasharray:none;stroke-opacity:1"
   id="path822"
   inkscape:connector-curvature="0" /><text
   y="-1.0472789"
   x="105.19445"
   transform="scale(1,-1)"
   style="font-style:normal;font-variant:normal;font-weight:normal;font-stretch:normal;font-size:15.9657135px;font-family:sans-serif;-inkscape-font-specification:sans-serif;writing-mode:lr-tb;fill:#000000;fill-opacity:1;fill-rule:nonzero;stroke:none;stroke-width:1.01390481"
   id="text785"><tspan
     style="stroke-width:1.01390481"
     y="-1.0472789"
     x="105.19445"
     sodipodi:role="line"
     id="tspan797">Corrected maximal velocity (a.u.)</tspan></text>

<text
   y="-16.428993"
   x="87.143608"
   style="font-style:normal;font-variant:normal;font-weight:normal;font-stretch:normal;font-size:14.51428509px;font-family:sans-serif;-inkscape-font-specification:sans-serif;writing-mode:lr-tb;fill:#000000;fill-opacity:1;fill-rule:nonzero;stroke:none;stroke-width:1.01390481"
   id="text4672"
   transform="scale(1,-1)"><tspan
     y="-16.428993"
     x="87.143608"
     style="font-style:normal;font-variant:normal;font-weight:normal;font-stretch:normal;font-size:14.51428509px;font-family:sans-serif;-inkscape-font-specification:sans-serif;letter-spacing:-0.54428571px;stroke-width:1.01390481"
     sodipodi:role="line"
     id="tspan4670">1</tspan></text>

<text
   transform="scale(1,-1)"
   id="text1971"
   style="font-style:normal;font-variant:normal;font-weight:normal;font-stretch:normal;font-size:14.51428509px;font-family:sans-serif;-inkscape-font-specification:sans-serif;writing-mode:lr-tb;fill:#000000;fill-opacity:1;fill-rule:nonzero;stroke:none;stroke-width:1.01390481"
   x="213.72881"
   y="-16.428993"><tspan
     id="tspan1969"
     sodipodi:role="line"
     style="font-style:normal;font-variant:normal;font-weight:normal;font-stretch:normal;font-size:14.51428509px;font-family:sans-serif;-inkscape-font-specification:sans-serif;letter-spacing:-0.54428571px;stroke-width:1.01390481"
     x="213.72881"
     y="-16.428993">10</tspan></text>

<text
   y="-16.428993"
   x="340.48019"
   style="font-style:normal;font-variant:normal;font-weight:normal;font-stretch:normal;font-size:14.51428509px;font-family:sans-serif;-inkscape-font-specification:sans-serif;writing-mode:lr-tb;fill:#000000;fill-opacity:1;fill-rule:nonzero;stroke:none;stroke-width:1.01390481"
   id="text1975"
   transform="scale(1,-1)"><tspan
     y="-16.428993"
     x="340.48019"
     style="font-style:normal;font-variant:normal;font-weight:normal;font-stretch:normal;font-size:14.51428509px;font-family:sans-serif;-inkscape-font-specification:sans-serif;letter-spacing:-0.54428571px;stroke-width:1.01390481"
     sodipodi:role="line"
     id="tspan1973">100</tspan></text>

<path
   d="m 45.03,32.955714 386.12666,0"
   style="fill:none;stroke:#000000;stroke-width:1.08487821;stroke-linecap:square;stroke-linejoin:round;stroke-miterlimit:10;stroke-dasharray:none;stroke-opacity:1"
   id="path1046"
   inkscape:connector-curvature="0"
   sodipodi:nodetypes="cc" /><path
   sodipodi:nodetypes="cc"
   inkscape:connector-curvature="0"
   id="path2001"
   style="fill:none;stroke:#000000;stroke-width:1.08487821;stroke-linecap:square;stroke-linejoin:round;stroke-miterlimit:10;stroke-dasharray:none;stroke-opacity:1"
   d="M 45.03,32.955714 V 206.16572" /><text
   y="-122.47231"
   x="18.299961"
   style="font-style:normal;font-variant:normal;font-weight:normal;font-stretch:normal;font-size:14.51428509px;font-family:sans-serif;-inkscape-font-specification:sans-serif;writing-mode:lr-tb;fill:#000000;fill-opacity:1;fill-rule:nonzero;stroke:none;stroke-width:1.01390481"
   id="text4599"
   transform="scale(1,-1)"><tspan
     y="-122.47231"
     x="18.299961"
     style="font-style:normal;font-variant:normal;font-weight:normal;font-stretch:normal;font-size:14.51428509px;font-family:sans-serif;-inkscape-font-specification:sans-serif;letter-spacing:-0.54428571px;stroke-width:1.01390481"
     sodipodi:role="line"
     id="tspan4597">5.0</tspan></text>

<text
   transform="scale(1,-1)"
   id="text2272"
   style="font-style:normal;font-variant:normal;font-weight:normal;font-stretch:normal;font-size:14.51428509px;font-family:sans-serif;-inkscape-font-specification:sans-serif;writing-mode:lr-tb;fill:#000000;fill-opacity:1;fill-rule:nonzero;stroke:none;stroke-width:1.01390481"
   x="18.299961"
   y="-35.386597"><tspan
     id="tspan2270"
     sodipodi:role="line"
     style="font-style:normal;font-variant:normal;font-weight:normal;font-stretch:normal;font-size:14.51428509px;font-family:sans-serif;-inkscape-font-specification:sans-serif;letter-spacing:-0.54428571px;stroke-width:1.01390481"
     x="18.299961"
     y="-35.386597">0.0</tspan></text>

<text
   y="-78.929451"
   x="18.604706"
   style="font-style:normal;font-variant:normal;font-weight:normal;font-stretch:normal;font-size:14.51428509px;font-family:sans-serif;-inkscape-font-specification:sans-serif;writing-mode:lr-tb;fill:#000000;fill-opacity:1;fill-rule:nonzero;stroke:none;stroke-width:1.01390481"
   id="text2276"
   transform="scale(1,-1)"><tspan
     y="-78.929451"
     x="18.604706"
     style="font-style:normal;font-variant:normal;font-weight:normal;font-stretch:normal;font-size:14.51428509px;font-family:sans-serif;-inkscape-font-specification:sans-serif;letter-spacing:-0.54428571px;stroke-width:1.01390481"
     sodipodi:role="line"
     id="tspan2274">2.5</tspan></text>

<text
   transform="scale(1,-1)"
   id="text2280"
   style="font-style:normal;font-variant:normal;font-weight:normal;font-stretch:normal;font-size:14.51428509px;font-family:sans-serif;-inkscape-font-specification:sans-serif;writing-mode:lr-tb;fill:#000000;fill-opacity:1;fill-rule:nonzero;stroke:none;stroke-width:1.01390481"
   x="18.604706"
   y="-166.01517"><tspan
     id="tspan2278"
     sodipodi:role="line"
     style="font-style:normal;font-variant:normal;font-weight:normal;font-stretch:normal;font-size:14.51428509px;font-family:sans-serif;-inkscape-font-specification:sans-serif;letter-spacing:-0.54428571px;stroke-width:1.01390481"
     x="18.604706"
     y="-166.01517">7.5</tspan></text>

<text
   y="13.093648"
   x="525.8476"
   transform="matrix(0,1,1,0,0,0)"
   style="font-style:normal;font-variant:normal;font-weight:normal;font-stretch:normal;font-size:15.9657135px;font-family:sans-serif;-inkscape-font-specification:sans-serif;writing-mode:lr-tb;fill:#000000;fill-opacity:1;fill-rule:nonzero;stroke:none;stroke-width:1.01390481"
   id="text785-7-2"><tspan
     style="stroke-width:1.01390481"
     y="13.093648"
     x="525.8476"
     sodipodi:role="line"
     id="tspan797-68-0">Density</tspan></text>

<text
   y="-558.64661"
   x="18.299963"
   style="font-style:normal;font-variant:normal;font-weight:normal;font-stretch:normal;font-size:14.51428509px;font-family:sans-serif;-inkscape-font-specification:sans-serif;writing-mode:lr-tb;fill:#000000;fill-opacity:1;fill-rule:nonzero;stroke:none;stroke-width:1.01390481"
   id="text4599-6"
   transform="scale(1,-1)"><tspan
     y="-558.64661"
     x="18.299963"
     style="font-style:normal;font-variant:normal;font-weight:normal;font-stretch:normal;font-size:14.51428509px;font-family:sans-serif;-inkscape-font-specification:sans-serif;letter-spacing:-0.54428571px;stroke-width:1.01390481"
     sodipodi:role="line"
     id="tspan4597-9">5.0</tspan></text>

<text
   id="text2272-0"
   style="font-style:normal;font-variant:normal;font-weight:normal;font-stretch:normal;font-size:14.51428509px;font-family:sans-serif;-inkscape-font-specification:sans-serif;writing-mode:lr-tb;fill:#000000;fill-opacity:1;fill-rule:nonzero;stroke:none;stroke-width:1.01390481"
   x="18.299963"
   y="-473.4166"
   transform="scale(1,-1)"><tspan
     id="tspan2270-4"
     sodipodi:role="line"
     style="font-style:normal;font-variant:normal;font-weight:normal;font-stretch:normal;font-size:14.51428509px;font-family:sans-serif;-inkscape-font-specification:sans-serif;letter-spacing:-0.54428571px;stroke-width:1.01390481"
     x="18.299963"
     y="-473.4166">0.0</tspan></text>

<text
   y="-516.02655"
   x="18.604706"
   style="font-style:normal;font-variant:normal;font-weight:normal;font-stretch:normal;font-size:14.51428509px;font-family:sans-serif;-inkscape-font-specification:sans-serif;writing-mode:lr-tb;fill:#000000;fill-opacity:1;fill-rule:nonzero;stroke:none;stroke-width:1.01390481"
   id="text2276-8"
   transform="scale(1,-1)"><tspan
     y="-516.02655"
     x="18.604706"
     style="font-style:normal;font-variant:normal;font-weight:normal;font-stretch:normal;font-size:14.51428509px;font-family:sans-serif;-inkscape-font-specification:sans-serif;letter-spacing:-0.54428571px;stroke-width:1.01390481"
     sodipodi:role="line"
     id="tspan2274-5">2.5</tspan></text>

<text
   id="text2280-1"
   style="font-style:normal;font-variant:normal;font-weight:normal;font-stretch:normal;font-size:14.51428509px;font-family:sans-serif;-inkscape-font-specification:sans-serif;writing-mode:lr-tb;fill:#000000;fill-opacity:1;fill-rule:nonzero;stroke:none;stroke-width:1.01390481"
   x="18.604706"
   y="-601.28931"
   transform="scale(1,-1)"><tspan
     id="tspan2278-2"
     sodipodi:role="line"
     style="font-style:normal;font-variant:normal;font-weight:normal;font-stretch:normal;font-size:14.51428509px;font-family:sans-serif;-inkscape-font-specification:sans-serif;letter-spacing:-0.54428571px;stroke-width:1.01390481"
     x="18.604706"
     y="-601.28931">7.5</tspan></text>

<text
   y="14.309786"
   x="258.7908"
   style="font-style:normal;font-variant:normal;font-weight:normal;font-stretch:normal;font-size:15.9657135px;font-family:sans-serif;-inkscape-font-specification:sans-serif;writing-mode:lr-tb;fill:#000000;fill-opacity:1;fill-rule:nonzero;stroke:none;stroke-width:1.01390481"
   id="text785-3-9"
   transform="matrix(0,1,1,0,0,0)"><tspan
     style="stroke-width:1.01390481"
     y="14.309786"
     x="258.7908"
     sodipodi:role="line"
     id="tspan797-2-7">Threshold (mm.s<tspan
   style="font-size:10.3777132px;baseline-shift:super;stroke-width:1.01390481"
   id="tspan2210-3">-1</tspan>)</tspan></text>

<text
   transform="scale(1,-1)"
   y="-250.64661"
   x="18.299963"
   style="font-style:normal;font-variant:normal;font-weight:normal;font-stretch:normal;font-size:14.51428509px;font-family:sans-serif;-inkscape-font-specification:sans-serif;writing-mode:lr-tb;fill:#000000;fill-opacity:1;fill-rule:nonzero;stroke:none;stroke-width:1.01390481"
   id="text2453"><tspan
     y="-250.64661"
     x="18.299963"
     style="font-style:normal;font-variant:normal;font-weight:normal;font-stretch:normal;font-size:14.51428509px;font-family:sans-serif;-inkscape-font-specification:sans-serif;letter-spacing:-0.54428571px;stroke-width:1.01390481"
     sodipodi:role="line"
     id="tspan2451">0.0</tspan></text>

<text
   id="text2457"
   style="font-style:normal;font-variant:normal;font-weight:normal;font-stretch:normal;font-size:14.51428509px;font-family:sans-serif;-inkscape-font-specification:sans-serif;writing-mode:lr-tb;fill:#000000;fill-opacity:1;fill-rule:nonzero;stroke:none;stroke-width:1.01390481"
   x="18.604706"
   y="-311.2066"
   transform="scale(1,-1)"><tspan
     id="tspan2455"
     sodipodi:role="line"
     style="font-style:normal;font-variant:normal;font-weight:normal;font-stretch:normal;font-size:14.51428509px;font-family:sans-serif;-inkscape-font-specification:sans-serif;letter-spacing:-0.54428571px;stroke-width:1.01390481"
     x="18.604706"
     y="-311.2066">0.5</tspan></text>

<text
   transform="scale(1,-1)"
   y="-371.75659"
   x="18.299963"
   style="font-style:normal;font-variant:normal;font-weight:normal;font-stretch:normal;font-size:14.51428509px;font-family:sans-serif;-inkscape-font-specification:sans-serif;writing-mode:lr-tb;fill:#000000;fill-opacity:1;fill-rule:nonzero;stroke:none;stroke-width:1.01390481"
   id="text2461"><tspan
     y="-371.75659"
     x="18.299963"
     style="font-style:normal;font-variant:normal;font-weight:normal;font-stretch:normal;font-size:14.51428509px;font-family:sans-serif;-inkscape-font-specification:sans-serif;letter-spacing:-0.54428571px;stroke-width:1.01390481"
     sodipodi:role="line"
     id="tspan2459">1.0</tspan></text>

<text
   xml:space="preserve"
   style="font-style:normal;font-variant:normal;font-weight:normal;font-stretch:normal;font-size:20px;line-height:18.75px;font-family:FontAwesome;-inkscape-font-specification:FontAwesome;letter-spacing:0px;word-spacing:0px;fill:#000000;fill-opacity:1;stroke:none;stroke-width:0.75px;stroke-linecap:butt;stroke-linejoin:miter;stroke-opacity:1"
   x="264.89426"
   y="-313.98993"
   id="text379"
   transform="scale(1,-1)"><tspan
     sodipodi:role="line"
     x="264.89426"
     y="-313.98993"
     style="font-style:italic;font-variant:normal;font-weight:normal;font-stretch:normal;font-size:14px;font-family:serif;-inkscape-font-specification:'serif Italic';stroke-width:0.75px"
     id="tspan377">*</tspan></text>
</g>
</g></svg>